<svg width="600" height="520" xmlns="http://www.w3.org/2000/svg">
 <metadata id="metadata8">image/svg+xml</metadata>
 <defs>
  <clipPath id="clipPath22" clipPathUnits="userSpaceOnUse">
   <path id="path20" d="m-529.5,1607.5l1000,0l0,-1000l-1000,0l0,1000z"/>
  </clipPath>
 </defs>
 <g>
  <title>background</title>
  <rect fill="none" id="canvas_background" height="522" width="602" y="-1" x="-1"/>
 </g>
 <g>
  <title>Layer 1</title>
  <g transform="matrix(1.3333333,0,0,-1.3333333,0,1333.3333) " id="g10">
   <g id="g12">
    <path fill="#f8f9fa" fill-rule="nonzero" id="path14" d="m284.4502,781.8125l-3.853,0.374l6.887,1.073l-3.034,-1.447zm92.479,108.109l-4.494,8.805l-14.133,34.812l-2.444,18.438l-22.064,11.75l-30.708,19.178l-20.157,-13.928l-37.304,-13.412l-24.696,-4.088l-17,4.088l-31.978,10.389l-20.723,-53.552l-7.863,-13.081l-2.936,-18.551l7.536,-20.785l20.964,-35.108l-2,-14.65l1.302,-9.055l15.188,-10.433l73.626,-0.899l19.003,-7.211l-21.606,2.098l0.987,-65.322l31.5,-11.482l31.514,4.789l8.986,10.265l9.229,8.604l1.469,12.646l-5.384,16.589l-0.157,12.343l4.031,11.318l-9.188,14.96l-16.883,-5.493l3.883,2.41l16.85,11.319l3.413,2.979l8.087,6.646l30.341,25.044l1.034,2.429l3.625,32.902l-0.85,12.249z"/>
   </g>
   <g id="g16">
    <g clip-path="url(#clipPath22)" id="g18">
     <g id="g24">
      <path fill="#f8f9fa" fill-rule="nonzero" id="path26" d="m222.42331,771.2832l-20.717,-12.592l17.526,-22.857c0,0 12.407,7.943 14.474,8.161c2.066,0.218 10.813,19.708 10.813,19.708l-7.313,9.338l-14.783,-1.758z"/>
     </g>
     <g id="g28">
      <path fill="#f8f9fa" fill-rule="nonzero" id="path30" d="m349.46869,794.41211l-8.016,0l-7.366,-12.792l15.382,-6.5l18.308,-0.656l5.834,8.492l0,27.093l-11.908,-7.735l-12.234,-7.902z"/>
     </g>
     <g id="g32">
      <path fill="#717372" fill-rule="nonzero" id="path34" d="m298.81842,710.33109l1.571,-28.517l-8.84,0l3.207,-43.766l8.197,-8.833l78.167,-1c0,0 4.833,1.262 4.833,2.881c0,1.619 -3.008,12.785 -3.008,12.785l-13.325,22.834l-20.334,23.833l-12.333,3l-21.333,-7.5l-2.151,5.167c0,0 0.516,10.833 0,11.333c-0.516,0.5 -0.683,13.167 -0.683,13.167l-13.968,-5.384z"/>
     </g>
     <g id="g36">
      <path fill="#717372" fill-rule="nonzero" id="path38" d="m275.82233,708.74411l-16.625,-32.363l17.894,-22.333l10.565,-26.833l-5.667,-7.5l-72.334,0l-10.833,12.333l8.939,25.833l13.728,19l15.333,8l11,-4.067l1.062,7.901l9.272,10.333l3.5,15.667l14.166,-5.971z"/>
     </g>
     <g id="g40">
      <path fill="#717372" fill-rule="nonzero" id="path42" d="m138.48541,815.04828c0,0 18.284,-8.937 27.802,-12.093c9.517,-3.157 13.263,8.604 14.448,13.168c1.186,4.565 2.251,9.988 0,18.521c-2.25,8.532 -8.763,17.779 -8.763,17.779l0,-29.148c0,0 -10.733,30.958 -12.831,34.246c-2.097,3.288 -21.158,23.309 -21.158,23.309l22.035,-12.553l-4.288,12.562l-11.162,2.004l-16.588,-7.157l-1.995,-7.01l1,-32.916l11.5,-20.712"/>
     </g>
     <g id="g44">
      <path fill="#717372" fill-rule="nonzero" id="path46" d="m357.2041,941.8208l4.724,-23.201l15.173,-29.349l2.119,-5.617l5.25,13.334c0,0 0.167,9.67 0,10.918c-0.167,1.248 -8.333,28.415 -8.333,28.415l-17.834,5.5"/>
     </g>
     <g id="g48">
      <path fill="#009cab" fill-rule="nonzero" id="path50" d="m217.5527,725.25391l0,15.572l-23.795,23.74l-12.704,-8.99l-4.258,-9.25l1.631,-6.559l13.658,-3.388l24.802,-14.113"/>
     </g>
     <g id="g52">
      <path fill="#009cab" fill-rule="nonzero" id="path54" d="m372.30267,767.44339l7,1.096l11.167,17.787l11.152,12.833l-3.319,6.666l-7.833,3.68c0,0 -4.013,9.654 -3.923,10.154c0.09,0.5 -2.577,4.833 -2.577,4.833l-9.5,-7.667l-2.167,-25.833l0,-23.549z"/>
     </g>
     <g id="g56">
      <path fill="#83bfc7" fill-rule="nonzero" id="path58" d="m376.27441,789.5947l16.322,18.928l2.678,-4.846l-16.5,-17.582l-2.5,3.5z"/>
     </g>
     <g id="g60">
      <path fill="#83bfc7" fill-rule="nonzero" id="path62" d="m198.8584,734.72659l7.48,8.948c0,0 6.796,1.1 5.116,-1.361c-1.679,-2.46 -9.157,-10.263 -9.157,-10.263l-3.439,2.676z"/>
     </g>
     <g id="g64">
      <path fill="#009cab" fill-rule="nonzero" id="path66" d="m268.8623,838.39313l72.818,26.227l10.58,9.021l17.487,21.548l-7.82,23.431l-8.905,35.584l-22.063,11.75l-11.655,-17.404l-88.745,-22.129l-17.433,-8.134l-17.184,14l-16.682,-26.266l35.407,-67.628l21.926,7.982l6.197,1.59c0,0 9.895,3.242 17.399,-1.59l4.529,-6.921l4.144,-1.061"/>
     </g>
     <g id="g68">
      <path fill="#becacb" fill-rule="nonzero" id="path70" d="m117.05569,747.21289c-0.631,0.296 -1.247,0.585 -1.84,0.862c0.612,-0.286 1.226,-0.574 1.84,-0.862"/>
     </g>
     <g id="g72">
      <path fill="#becacb" fill-rule="nonzero" id="path74" d="m127.1445,742.4834c-0.518,0.242 -1.052,0.493 -1.602,0.751c0.525,-0.246 1.059,-0.497 1.602,-0.751"/>
     </g>
     <g id="g76">
      <path fill="#becacb" fill-rule="nonzero" id="path78" d="m125.543,743.23441c-0.203,0.095 -0.406,0.19 -0.607,0.284c0.204,-0.096 0.407,-0.19 0.607,-0.284"/>
     </g>
     <g id="g80">
      <path fill="#becacb" fill-rule="nonzero" id="path82" d="m119.64359,746c-0.486,0.228 -0.961,0.45 -1.428,0.669c0.478,-0.224 0.954,-0.447 1.428,-0.669"/>
     </g>
     <g id="g84">
      <path fill="#becacb" fill-rule="nonzero" id="path86" d="m128.40869,741.89059c-0.427,0.2 -0.848,0.397 -1.264,0.593c0.433,-0.203 0.856,-0.402 1.264,-0.593"/>
     </g>
     <g id="g88">
      <path fill="#becacb" fill-rule="nonzero" id="path90" d="m118.21579,746.66891c-0.386,0.182 -0.773,0.362 -1.16,0.544c0.379,-0.178 0.766,-0.359 1.16,-0.544"/>
     </g>
     <g id="g92">
      <path fill="#becacb" fill-rule="nonzero" id="path94" d="m122.63281,744.5986c-0.976,0.457 -1.976,0.926 -2.989,1.401c0.957,-0.449 1.953,-0.916 2.989,-1.401"/>
     </g>
     <g id="g96">
      <path fill="#becacb" fill-rule="nonzero" id="path98" d="m123.15231,744.35449c-0.175,0.082 -0.347,0.163 -0.52,0.244c0.174,-0.082 0.348,-0.163 0.52,-0.244"/>
     </g>
     <g id="g100">
      <path fill="#becacb" fill-rule="nonzero" id="path102" d="m124.936,743.51859c-0.582,0.272 -1.177,0.552 -1.784,0.836c0.582,-0.273 1.178,-0.552 1.784,-0.836"/>
     </g>
     <g id="g104">
      <path fill="#becacb" fill-rule="nonzero" id="path106" d="m134.47119,739.04791c-0.1,0.048 -0.198,0.093 -0.297,0.14c0.114,-0.054 0.214,-0.101 0.297,-0.14"/>
     </g>
     <g id="g108">
      <path fill="#becacb" fill-rule="nonzero" id="path110" d="m134.75439,738.91599c-0.045,0.021 -0.14,0.065 -0.283,0.132c0.095,-0.044 0.187,-0.087 0.283,-0.132"/>
     </g>
     <g id="g112">
      <path fill="#becacb" fill-rule="nonzero" id="path114" d="m134.78659,738.90039c-0.011,0.005 -0.021,0.01 -0.032,0.016c0.019,-0.01 0.032,-0.016 0.032,-0.016"/>
     </g>
     <g id="g116">
      <path fill="#becacb" fill-rule="nonzero" id="path118" d="m134.1738,739.1875c-0.126,0.06 -0.271,0.127 -0.434,0.203c0.144,-0.067 0.288,-0.135 0.434,-0.203"/>
     </g>
     <g id="g120">
      <path fill="#becacb" fill-rule="nonzero" id="path122" d="m133.00439,739.7363c-1.331,0.624 -2.613,1.225 -3.853,1.806c1.562,-0.733 2.883,-1.352 3.853,-1.806"/>
     </g>
     <g id="g124">
      <path fill="#becacb" fill-rule="nonzero" id="path126" d="m129.15189,741.54199c-0.243,0.114 -0.489,0.229 -0.743,0.349c0.247,-0.117 0.493,-0.232 0.743,-0.349"/>
     </g>
     <g id="g128">
      <path fill="#becacb" fill-rule="nonzero" id="path130" d="m133.7402,739.39059c-0.076,0.036 -0.152,0.071 -0.228,0.107c0.08,-0.037 0.156,-0.073 0.228,-0.107"/>
     </g>
     <g id="g132">
      <path fill="#becacb" fill-rule="nonzero" id="path134" d="m133.5127,739.49799c-0.156,0.073 -0.326,0.152 -0.508,0.238c0.167,-0.079 0.34,-0.16 0.508,-0.238"/>
     </g>
     <g id="g136">
      <path fill="#becacb" fill-rule="nonzero" id="path138" d="m109.49609,750.75681c-0.58,0.272 -1.146,0.538 -1.697,0.796c0.537,-0.252 1.103,-0.518 1.697,-0.796"/>
     </g>
     <g id="g140">
      <path fill="#becacb" fill-rule="nonzero" id="path142" d="m102.9595,753.8223c-0.428,0.2 -0.818,0.383 -1.169,0.548c0.36,-0.169 0.751,-0.353 1.169,-0.548"/>
     </g>
     <g id="g144">
      <path fill="#becacb" fill-rule="nonzero" id="path146" d="m115.21579,748.0752c-0.642,0.302 -1.281,0.601 -1.914,0.897c0.616,-0.288 1.252,-0.586 1.914,-0.897"/>
     </g>
     <g id="g148">
      <path fill="#becacb" fill-rule="nonzero" id="path150" d="m101.7905,754.37009c-0.685,0.321 -1.257,0.589 -1.697,0.795c0.421,-0.197 0.981,-0.46 1.697,-0.795"/>
     </g>
     <g id="g152">
      <path fill="#becacb" fill-rule="nonzero" id="path154" d="m104.3418,753.1738c-0.143,0.066 -0.278,0.13 -0.415,0.194c0.136,-0.063 0.274,-0.129 0.415,-0.194"/>
     </g>
     <g id="g156">
      <path fill="#becacb" fill-rule="nonzero" id="path158" d="m103.92679,753.36819c-0.336,0.157 -0.66,0.31 -0.967,0.454c0.302,-0.142 0.625,-0.294 0.967,-0.454"/>
     </g>
     <g id="g160">
      <path fill="#becacb" fill-rule="nonzero" id="path162" d="m134.78659,738.90039l-47.34,-0.092c-0.962,4.162 -2.1,8.609 -3.461,13.383c-13.5,47.356 -19,56.471 -19,56.471c0,0 -35.815,32.296 -47.339,29.731c-11.524,-2.566 -20.059,-0.881 1.14,-104.113l55.907,-43.305l15.233,-2.658c0,0 0.395,0.875 0.843,2.77l1.267,-2.77l39.449,-5.257c0,0 61.865,3.124 61.932,12.806c0.068,9.681 21.67,5.387 -58.631,43.034"/>
     </g>
     <g id="g164">
      <path fill="#becacb" fill-rule="nonzero" id="path166" d="m99.1846,755.5918c-0.115,0.054 -0.112,0.053 0,0"/>
     </g>
     <g id="g168">
      <path fill="#becacb" fill-rule="nonzero" id="path170" d="m99.35501,755.51169c-0.071,0.033 -0.128,0.06 -0.17,0.08c0.041,-0.019 0.098,-0.047 0.17,-0.08"/>
     </g>
     <g id="g172">
      <path fill="#becacb" fill-rule="nonzero" id="path174" d="m100.09369,755.16501c-0.332,0.155 -0.576,0.271 -0.739,0.347c0.169,-0.079 0.419,-0.197 0.739,-0.347"/>
     </g>
     <g id="g176">
      <path fill="#becacb" fill-rule="nonzero" id="path178" d="m104.9082,752.9082c-0.192,0.09 -0.381,0.179 -0.566,0.266c0.183,-0.086 0.372,-0.175 0.566,-0.266"/>
     </g>
     <g id="g180">
      <path fill="#becacb" fill-rule="nonzero" id="path182" d="m113.30219,748.97269c-0.373,0.175 -0.737,0.346 -1.092,0.513c0.361,-0.17 0.726,-0.341 1.092,-0.513"/>
     </g>
     <g id="g184">
      <path fill="#becacb" fill-rule="nonzero" id="path186" d="m111.04639,750.0303c-0.537,0.252 -1.054,0.494 -1.55,0.727c0.507,-0.238 1.025,-0.481 1.55,-0.727"/>
     </g>
     <g id="g188">
      <path fill="#becacb" fill-rule="nonzero" id="path190" d="m112.20999,749.48541c-0.392,0.184 -0.78,0.365 -1.164,0.545c0.377,-0.177 0.766,-0.358 1.164,-0.545"/>
     </g>
     <g id="g192">
      <path fill="#becacb" fill-rule="nonzero" id="path194" d="m106.11041,752.3447c-0.42,0.197 -0.823,0.386 -1.202,0.563c0.387,-0.181 0.788,-0.369 1.202,-0.563"/>
     </g>
     <g id="g196">
      <path fill="#becacb" fill-rule="nonzero" id="path198" d="m106.23969,752.28421c-0.043,0.02 -0.086,0.04 -0.129,0.061c0.043,-0.021 0.085,-0.04 0.129,-0.061"/>
     </g>
     <g id="g200">
      <path fill="#becacb" fill-rule="nonzero" id="path202" d="m107.79929,751.5527c-0.548,0.257 -1.068,0.501 -1.56,0.731c0.503,-0.236 1.024,-0.48 1.56,-0.731"/>
     </g>
     <g id="g204">
      <path fill="#777f7f" fill-rule="nonzero" id="path206" d="m130.67719,709.14359l-3.953,8.319c-0.24,0.507 0.082,1.102 0.639,1.176l11.379,1.516c0.269,0.036 0.539,-0.063 0.722,-0.264l8.605,-9.465c0.478,-0.525 0.116,-1.368 -0.594,-1.385l-16.031,-0.37c-0.327,-0.007 -0.627,0.177 -0.767,0.473m-14.138,-0.358l-3.589,6.809c-0.269,0.509 0.052,1.131 0.623,1.206l9.624,1.282c0.328,0.044 0.649,-0.111 0.819,-0.394l4.703,-7.843c0.327,-0.545 -0.056,-1.239 -0.691,-1.254l-10.737,-0.248c-0.314,-0.008 -0.605,0.164 -0.752,0.442m-8.376,-0.216l-3.348,5.918c-0.289,0.51 0.029,1.151 0.611,1.228l5.097,0.679c0.329,0.044 0.652,-0.113 0.821,-0.398l3.83,-6.468c0.322,-0.545 -0.06,-1.236 -0.693,-1.25l-5.578,-0.129c-0.305,-0.007 -0.589,0.154 -0.74,0.42m-8.907,18.161l5.031,0.303c0.309,0.018 0.604,-0.138 0.762,-0.406l2.908,-4.911c0.322,-0.543 -0.058,-1.231 -0.688,-1.25l-5.245,-0.151c-0.307,-0.009 -0.594,0.152 -0.745,0.42l-2.694,4.761c-0.302,0.533 0.06,1.198 0.671,1.234m18.925,0.689l3.185,-5.31c0.326,-0.543 -0.054,-1.236 -0.686,-1.254l-9.83,-0.284c-0.316,-0.01 -0.609,0.162 -0.756,0.441l-2.656,5.038c-0.28,0.532 0.083,1.176 0.683,1.212l9.301,0.559c0.308,0.018 0.601,-0.136 0.759,-0.402m13.572,0.953l5.163,-5.679c0.476,-0.524 0.118,-1.364 -0.589,-1.385l-10.734,-0.311c-0.329,-0.009 -0.632,0.176 -0.772,0.473l-2.613,5.498c-0.252,0.529 0.113,1.147 0.698,1.182l8.185,0.491c0.25,0.015 0.494,-0.084 0.662,-0.269m25.07,-27.575l-4.276,5.667c-0.392,0.52 -0.06,1.266 0.587,1.325l20.851,1.864l-23.011,-0.531c-0.266,-0.006 -0.52,0.116 -0.68,0.329l-7.539,9.992c-0.382,0.506 -0.077,1.235 0.551,1.319l7.179,0.956l-8.818,-0.255c-0.268,-0.007 -0.523,0.115 -0.684,0.329l-4.443,5.887c-0.398,0.527 -0.048,1.286 0.612,1.325l6.583,0.396l-8.08,0c-0.26,0 -0.504,0.122 -0.661,0.329l-1.72,2.279c-0.168,0.224 -0.438,0.347 -0.718,0.327l-2.441,-0.168c-0.691,-0.046 -1.021,-0.87 -0.556,-1.382c0.484,-0.532 0.106,-1.385 -0.612,-1.385l-7.371,0c-0.319,0 -0.61,0.183 -0.748,0.472l-0.96,2.022c-0.137,0.289 -0.428,0.473 -0.748,0.473l-2.443,0c-0.643,0 -1.041,-0.703 -0.71,-1.254l0.276,-0.459c0.33,-0.552 -0.067,-1.254 -0.711,-1.254l-9.36,0c-0.307,0 -0.589,0.17 -0.733,0.441l-2.103,3.99c-0.209,0.398 -0.699,0.556 -1.101,0.355l-0.487,-0.242c-0.43,-0.214 -0.588,-0.749 -0.343,-1.163l1.262,-2.131c0.327,-0.552 -0.071,-1.25 -0.712,-1.25l-5.096,0c-0.299,0 -0.574,0.16 -0.721,0.42l-3.165,5.594c-0.147,0.259 -0.422,0.419 -0.721,0.419l-3.655,0c-0.673,0 -1.065,-0.762 -0.672,-1.31l3.673,-5.123l-1.064,0l3.215,-3l3.536,-4.932c0.387,-0.538 0.015,-1.29 -0.649,-1.309l-1.106,-0.033c-0.534,-0.015 -0.914,-0.524 -0.776,-1.04l1.044,-3.924c0.107,-0.403 0.496,-0.664 0.909,-0.608l4.561,0.608c0.304,0.04 0.604,-0.09 0.783,-0.339l3.905,-5.447c0.388,-0.541 0.012,-1.295 -0.654,-1.31l-5.026,-0.116c-0.573,-0.013 -0.959,-0.591 -0.753,-1.126l1.204,-3.121c0.133,-0.345 0.478,-0.56 0.846,-0.527l7.826,0.7c0.292,0.026 0.575,-0.104 0.746,-0.342l4.114,-5.737l-2.876,5.082c-0.296,0.524 0.047,1.179 0.647,1.233l5.511,0.493c0.318,0.028 0.624,-0.129 0.786,-0.403l5.717,-9.655l-4.776,9.06c-0.276,0.523 0.07,1.158 0.659,1.211l10.688,0.956c0.316,0.028 0.621,-0.127 0.784,-0.399l5.143,-8.578l-3.822,8.045c-0.248,0.521 0.1,1.129 0.674,1.181l16.864,1.508c0.258,0.023 0.512,-0.076 0.686,-0.268l5.879,-6.466z"/>
     </g>
     <g id="g208">
      <path fill="#e73e16" fill-rule="nonzero" id="path210" d="m440.81348,831.2002l-5.334,6.954l0.05,11.394l-13.383,8.103l-7.438,-1.336l0,29.067l-19.145,4.145l-1.159,-28.229l-13.602,-27.917l8.677,-24.477l22,-7.479l2.878,4.446l11.936,-2.712l14.906,3.802c0,0 4.614,11.087 4.614,11.92c0,0.833 -5,12.319 -5,12.319"/>
     </g>
     <g id="g212">
      <path fill="#e73e16" fill-rule="nonzero" id="path214" d="m443.81348,831.2002l-5.334,6.954l-0.825,11.519l-12.508,7.978l-7.438,-1.336l0,29.067l-19.145,4.145l-4.076,-27.385l-10.685,-28.761l8.677,-24.477l22,-7.479l2.878,4.446l11.936,-2.712l12.986,5.364c0,0 6.534,9.525 6.534,10.358c0,0.833 -5,12.319 -5,12.319"/>
     </g>
     <g id="g216">
      <path fill="#e73e16" fill-rule="nonzero" id="path218" d="m444.31348,830.49408l-5.334,6.954l-1.575,10.725l-11.758,8.772l-7.438,-1.336l0,29.067l-19.145,4.145l-4.076,-27.385l-10.685,-28.761l8.677,-24.477l22,-7.479l2.878,4.446l11.936,-2.712l11.323,6.845c0,0 8.197,8.044 8.197,8.877c0,0.833 -5,12.319 -5,12.319"/>
     </g>
     <g id="g220">
      <path fill="#e73e16" fill-rule="nonzero" id="path222" d="m213.8862,726.64261c-2.168,1.697 -23.073,13.511 -26.073,13.916c-3,0.406 -17,2.749 -19.75,2.202c-2.75,-0.546 -6.75,-2.195 -7,-3.746c-0.25,-1.55 -1.175,-8.858 -1.66,-9.372c-0.484,-0.514 -10.84,-2.572 -12.84,-3.5c-2,-0.928 -10,0.322 -9.75,-0.928c0.25,-1.25 -1.5,-4.716 0,-6.108c1.5,-1.392 5,-4.406 5,-4.406l-0.5,1.18c0,0 27.121,-5.261 27.579,-4.752c0.458,0.51 4.171,10.832 4.171,10.832l1.743,-5.433l4.257,0l9.731,-2.813l6.367,-12.75l-6.367,-7.25l-32.382,-8.22c0,0 0.651,-4.924 1.401,-5.102c0.75,-0.178 12.488,-3.928 12.488,-3.928l20.012,9.03l6,11.332c0,0 7.628,4.685 8.939,6.537c1.311,1.851 5.311,11.337 5.311,11.337c0,0 0.486,9.197 2.409,9.076c1.925,-0.122 3.082,1.168 0.914,2.866"/>
     </g>
     <g id="g224">
      <path fill="#e73e16" fill-rule="nonzero" id="path226" d="m271.00677,757.66599l16.192,-12l8.006,-2.493l16.985,6.66l14.17,9.166l4.82,10.395l1.022,13.359l-1.022,7.247l-26.627,-2.703l-25.519,-13.99l-10.204,-16.629l2.177,0.988z"/>
     </g>
     <g id="g228">
      <path fill="#999999" fill-rule="nonzero" id="path230" d="m256.45313,750.77441c0,0 17.388,-4.515 19.333,0.043c1.946,4.557 -0.843,2.098 -3.899,3.979c-3.057,1.881 -15.434,1.244 -15.434,1.244l0,-5.266"/>
     </g>
     <g id="g232">
      <path fill="#999999" fill-rule="nonzero" id="path234" d="m259.10449,764.5654l12.42,-2.005l2.212,4.883l-14.632,1.147l0,-4.025z"/>
     </g>
     <g id="g236">
      <path fill="#999999" fill-rule="nonzero" id="path238" d="m336.61719,784.47659c0,0 33.946,-3.504 34.513,-1.217c0.566,2.288 -0.609,-6.353 -0.609,-6.353l-16.673,-2.793l-19.761,7.507l0.944,1.639"/>
     </g>
     <g id="g240">
      <path fill="#999999" fill-rule="nonzero" id="path242" d="m211.45459,742.31351c0,0 29.49,15.957 29.533,23.263c0.042,7.304 -0.043,-7.306 -0.043,-7.306l-10.16,-17.953l-9.797,-1.426l-9.533,3.422"/>
     </g>
     <g id="g244">
      <path fill="#ffffff" fill-rule="nonzero" id="path246" d="m223.97659,866.99017c0,0 13.252,-15.801 28,-8.15c14.749,7.651 18.75,24.894 15.75,30.147c-3,5.253 -9.25,21.139 -27.5,19.321c-18.25,-1.818 -22,-13.874 -22,-13.874c0,0 -4.983,-9.6 0,-19.694c4.983,-10.094 5.75,-7.75 5.75,-7.75"/>
     </g>
     <g id="g248">
      <path fill="#ffffff" fill-rule="nonzero" id="path250" d="m322.09082,895.12653c0,0 22.557,-15.789 27.307,-4.483c4.75,11.305 1.265,27.555 1.265,27.555l-17.151,5.637l-12.431,-8.212l1.01,-20.497"/>
     </g>
     <g id="g252">
      <path fill="#e73e16" fill-rule="nonzero" id="path254" d="m179.26071,968.79791l51.944,-12.437l57.202,16.687c0,0 15.145,7.022 12.489,16.511c-2.656,9.489 -75.516,0.685 -85.741,-3.833c-10.224,-4.519 -34.125,-11.678 -34.125,-11.678"/>
     </g>
     <g id="g256">
      <path fill="#ffffff" fill-rule="nonzero" id="path258" d="m133.97311,833.93457l2.05,25.822l-7.221,-11.83l5.171,-13.992z"/>
     </g>
     <g id="g260">
      <path fill="#ffffff" fill-rule="nonzero" id="path262" d="m189.9194,894.08978l12.266,28.468l-10.136,-3.18l-2.13,-25.288z"/>
     </g>
     <g id="g264">
      <path fill="#ffffff" fill-rule="nonzero" id="path266" d="m201.6377,620.58981c0,0 12.569,41.333 23.16,47.916c10.59,6.584 11.34,11.172 11.34,11.172l-9.25,1.349c0,0 -20.622,-29.187 -21.811,-36.437c-1.189,-7.25 -3.439,-24 -3.439,-24"/>
     </g>
     <g id="g268">
      <path fill="#ffffff" fill-rule="nonzero" id="path270" d="m137.88721,716.75491c0,0 19.631,-4.579 22.44,1.128c2.81,5.707 4.241,12.135 4.241,12.135l-26.681,-13.263z"/>
     </g>
     <g id="g272">
      <path fill="#ffffff" fill-rule="nonzero" id="path274" d="m178.88821,737.55661l12.704,24.772l-11.381,-5.311l-1.323,-19.461z"/>
     </g>
     <g id="g276">
      <path fill="#ffffff" fill-rule="nonzero" id="path278" d="m369.30371,805.2793l11.866,14.575l2.916,-6.386l-7.39,-9.264l-7.392,1.075z"/>
     </g>
     <g id="g280">
      <path fill="#ffffff" fill-rule="nonzero" id="path282" d="m385.09082,824.51758c0,0 11.852,25.641 14.366,27.773c2.514,2.132 4.544,28.392 4.544,28.392l-8.613,5.22l1.073,-30.385l-12.375,-24.294l1.005,-6.706"/>
     </g>
     <g id="g284">
      <path fill="#ffffff" fill-rule="nonzero" id="path286" d="m47.28079,811.6279c0,0 -28.943,16.517 -31.46,6.323c-2.517,-10.195 -1.86,-26.441 -1.86,-26.441l1.479,-31.097l-9.996,58.613l6.61,14.909l12.539,0.145l28.608,-18.824l-5.92,-3.628z"/>
     </g>
     <g id="g288">
      <path fill="#ffffff" fill-rule="nonzero" id="path290" d="m32.96091,764.05759c0,0 5.417,-9.533 11.208,-10.071c5.792,-0.539 13.042,3.631 13.042,3.631c0,0 -10.211,12.842 -13.981,11.246c-3.769,-1.596 -12.019,1.654 -12.019,1.654l1.75,-6.46"/>
     </g>
     <g id="g292">
      <path fill="#ffffff" fill-rule="nonzero" id="path294" d="m26.6377,801.1709c0,0 34.333,-18.653 35.667,-19.534c1.333,-0.881 -1.334,11.214 -1.334,11.214l-29.76,12.74l-4.573,-4.42z"/>
     </g>
     <g id="g296">
      <path fill="#ffffff" fill-rule="nonzero" id="path298" d="m189.9194,962.54791c0,0 31.272,17.671 58.105,23.178c26.833,5.506 -32.87,0 -32.87,0l-34.125,-11.678l8.89,-11.5z"/>
     </g>
     <g id="g300">
      <path fill="#000000" fill-rule="nonzero" id="path302" d="m266.09369,840.45172l0,0l-1.308,3.259c0.334,6 -17.425,6.333 -17.425,6.333c-2.861,1.478 -6.952,-0.025 -10.815,-2.345c-0.221,0.211 -0.472,0.37 -0.76,0.452c-2.333,0.666 -20.333,-4.651 -20.333,-4.651l-10,20.651c0,0 -22.666,38.333 -22.666,42.666c0,4.334 15,23.334 15,23.334l12.116,-10.674c-11.393,-15.947 -7.67,-34.344 -6.45,-27.326c0.949,5.454 18.088,22.037 27.904,31.156c0.029,0.007 73.93,16.344 74.929,17.344c1,1 9.25,7.419 9.25,7.419c0,0 -9.75,-4.372 -15.75,-4.771c-5.639,-0.374 -53.47,-8.57 -62.717,-12.667l-7.283,7.952c0,0 -0.666,1.9 -16.333,-14.767c-1.115,-1.186 -2.118,-2.405 -3.039,-3.639c-2.545,4.203 -8.144,12.643 -12.627,13.639c-6,1.334 -21.334,-24.666 -21.334,-28.666c0,-4 36.334,-62 37.334,-66.667c1,-4.667 6.216,0 6.216,0l6.242,1.177c-0.41,-0.39 -0.637,-0.617 -0.637,-0.617l7.512,-12.333c0,0 2,4.333 1.666,9.333c-0.333,5 5.667,7.333 12.575,10.667c6.906,3.333 21.067,-12.074 21.067,-12.074l-1.075,2.679c6.547,1.629 37.794,9.522 62.433,17.835c27.667,9.333 35.152,34.652 35.152,34.652c0,0 0.059,0.149 0.162,0.408c-0.114,-0.271 -0.226,-0.542 -0.353,-0.811c-13.596,-28.79 -98.653,-48.948 -98.653,-48.948"/>
     </g>
     <g id="g304">
      <path fill="#000000" fill-rule="nonzero" id="path306" d="m430.62012,806.81689c-6.667,-5.167 -13.167,3.833 -13.167,3.833l2.311,5.436c4.848,-0.997 13.417,-2.114 18.671,-0.73c-1.119,-1.889 -3.473,-5.174 -7.815,-8.539m-25.167,-1.187c-0.833,0.479 -8.667,3.77 -10.917,3.77c-2.25,0 -5.25,14.75 -7.619,18.5c-1.848,2.924 0.373,10.711 1.441,14l9.928,17l0.25,26.238c0,0 8.25,3.512 15.547,-2.488c6.248,-5.138 -2.085,-24.946 -4.609,-30.531c-5.376,-4.406 -10.044,-9.351 -9.807,-11.719c0.114,-1.149 0.661,-2.603 1.431,-4.159c-0.395,0.244 -0.53,0.033 -0.187,-0.966c1.375,-4 -1.25,-17.25 -1.25,-17.25c0,0 3.875,3.125 4.375,3.875c0.355,0.533 1.106,4.716 1.513,7.099c1.763,-2.509 3.237,-4.349 3.237,-4.349c0,0 2.292,-0.286 5.304,-0.533c-0.029,-1.348 0.048,-3.395 0.612,-4.995c-1.691,-0.451 -3.658,-1.83 -2.749,-5.972c0.793,-3.612 2.562,-6.032 4.055,-7.52l-10.555,0zm-31.925,-34.372l-0.408,1.226c0,0 2.166,39.666 1.666,41.566c-0.447,1.702 6.71,7.909 8.21,9.187c2.118,-5.065 4.79,-10.087 4.79,-10.087c0.287,-5.446 6.051,-9.191 10.918,-11.399l-0.418,-1.767l-24.758,-28.726zm-18.117,5.997c-2.507,0.435 -14.79,2.95 -18.756,3.765c2.932,4.686 6.118,10.347 7.045,14.108c2.098,-0.675 6.048,-1.461 9.024,-0.113c4.22,1.912 16.857,11.724 18.406,13.647c-0.21,-7.144 -0.406,-18.422 -0.542,-27.267c-3.796,-1.387 -12.825,-4.548 -15.177,-4.14m79.375,66.775c-0.119,-3.13 -12,-12.63 -20.119,-15.13c-8.131,-2.5 -8.841,12 -8.841,12c0,0 14.341,13.371 17.841,15c3.5,1.63 11.239,-8.75 11.119,-11.87m6,-18.38c-2.25,-4.5 -5.375,-8.25 -9,-6.625c0,0 -12.502,-1.827 -13.381,5.024c3.691,0.874 10.916,5.532 16.332,10.558c2.748,-1.809 7.702,-5.651 6.049,-8.957m-110.166,-52.328l0,1.582c0.043,-0.168 0.093,-0.345 0.149,-0.536l0,0.003l0.008,-0.027c-0.003,0.008 -0.006,0.016 -0.008,0.024c-0.04,-0.321 -0.09,-0.673 -0.149,-1.046m2.541,-37.172c-2.208,-3.333 -11.208,-9.75 -11.208,-9.75l-5,-7.694c0,0 -25,-10.389 -29.167,-8.889c-4.166,1.5 -29.166,10.167 -31.333,13.333c-2.167,3.167 7.544,21.355 4.605,23.094c-2.938,1.74 -4.605,4.531 -4.605,4.531l-0.176,2.554c0.534,-0.324 0.843,-0.512 0.843,-0.512c0,0 0.332,0.813 0.804,2.117c4.712,-4.873 17.862,-4.117 17.862,-4.117l-2.27,2.713l11.27,-8.754l7.75,-0.5l-0.008,0.006l2.274,-0.303l1.52,1.135c7.295,0.465 19.611,3.619 32.301,17.447c1.048,-3.674 6.54,-23.39 4.538,-26.411m-21.375,-52.955c-0.824,-1.387 -3.029,-3.451 -8.424,-1.622c0.885,4.864 -2.013,26.614 -2.013,26.614l-0.116,-0.042c3.297,1.209 7.014,2.645 10.553,4.171l0,-29.121zm72,-50.545c-0.333,-3.666 -77.125,0 -77.125,0l-6.25,0.625c0,0 -7.625,39.997 -6.875,44.374c0.536,3.126 4.411,3.464 6.586,3.403c0.011,-0.012 0.022,-0.024 0.033,-0.035c0.001,-0.002 3.342,-6.075 12.548,-1.908c0,0 2.042,0.744 3.321,2.698c0.273,0.138 0.532,0.329 0.762,0.593l27.834,5.917c0,0 39.5,-52 39.166,-55.667m-127.333,47.25l0.217,-0.175l-0.559,0.012c-2.453,2.047 -4.531,3.848 -5.075,4.663c-0.475,0.712 -1.595,1.296 -3.012,1.81c2.234,1.363 10.981,6.918 10.762,10.19c-0.187,2.815 2.16,11.468 3.343,15.608c3.232,-1.035 6.701,-2.021 10.077,-2.914c-1.484,-4.523 -9.709,-28.74 -15.753,-29.194m27.583,-48.25c0,-1.25 -1.552,-5.5 -1.552,-5.5l-44.536,-3.436c0,0 -31.328,1.103 -35.995,5.436c-4.666,4.334 6.5,30.334 6.5,30.334l23.783,24.577c2.023,-1.011 10.595,-5.107 19.898,-6.757l0,-3.654c0,0 8.471,-3.662 9.003,-3.333c0.141,0.088 0.399,0.125 0.697,0.136c10.444,-12.222 22.202,-36.844 22.202,-37.803m-56,112.626c-3.073,-1.767 -5.574,-3.957 -7.048,-5.384c-0.183,2.02 -0.617,3.533 -1.451,4.008c-1.867,1.067 -7.646,7.605 -12.635,13.932c0.002,0.001 16.372,9.402 21.76,12.263c3.341,-1.687 7.528,-4.004 11.66,-6.364c-2.703,-5.369 -8.544,-16.302 -12.286,-18.455m-24.249,-17.126l5.166,-12l-4.333,-8.166l-4.762,-3.863c-1.161,4.88 -5.734,9.583 -8.114,11.763c4.545,2.333 8.293,6.867 8.293,6.867l-13.75,-3.745l-9.831,5.144c-0.163,1.834 -1.669,3.334 -2.836,6.34c-1.167,3.008 -1.5,2.494 -2.859,3.91c-1.359,1.417 -3.308,0.917 -4.367,0c0,0 -0.065,0.549 -0.103,1.27c0.145,0.352 0.112,0.653 -0.026,0.928c-0.001,0.578 0.03,1.169 0.129,1.633c0.292,1.366 2.559,3.086 3.059,3.086c0.5,0 7.003,-1.667 7.003,-1.667c0,0 13.831,-1 17.331,-3.75c2.498,-1.962 14.922,-7.235 20.836,-11.366l-1.238,-2.107c-3.483,4.618 -9.598,5.723 -9.598,5.723m-40.875,-47l-3.875,4.25l-0.974,0.852c10.423,1.835 23.785,2.963 29.899,3.417c-0.16,-1.115 -0.365,-2.403 -0.55,-3.144c-0.375,-1.5 -24.5,-5.375 -24.5,-5.375m13.544,38.834c0.311,0.443 0.538,0.806 0.705,1.113c0.746,-0.57 2.025,-1.505 3.553,-2.464l-4.684,0.726c0.131,0.196 0.271,0.403 0.426,0.625m-44.169,-27.834l0.25,-4.25c0,0 -35.75,4.5 -37.25,5c-1.433,0.478 8.523,-5.886 -1.475,-10.162l1.225,19.912c0,0 -2.656,17.042 -6.085,37.124l44.659,-2.624l10.264,-7.942c-3.39,-0.348 -9.061,-1.401 -10.088,-2.558c-0.231,-0.259 -0.21,-0.53 -0.034,-0.801c-0.049,-1.214 -0.136,-3.507 -0.142,-4.699c-0.01,-1.666 2.342,-3.666 6.009,-6.666c3.667,-3 7.167,-2.5 10.382,-3.5c3.216,-1 8.451,-1.167 14.951,-0.834c6.5,0.334 5.834,2.834 7.834,4.5c1.704,1.421 1.478,1.879 2.818,4.045c5.138,-2.908 19.323,-11.351 17.682,-15.045c-2,-4.5 -11.667,-9.25 -12.834,-9.5c-1.166,-0.25 -10.666,-2 -20.666,-1.75c-10,0.25 -27.5,-0.25 -27.5,-0.25m-45,-1.25c-23,8.5 -59.5,44.25 -63.75,46c-4.25,1.75 -15.25,94.25 -15.25,94.25c40.5,4.75 37.25,-13 37.25,-13c-2.511,5.911 -21.781,8.641 -27.891,9.36c10.991,-2.6 50.031,-27.9 52.141,-32.18c2.25,-4.559 16.5,-69.93 19.25,-78.43c2.75,-8.5 -1.75,-26 -1.75,-26m76.565,42.467l1.857,-0.626c0.018,-0.697 0.282,-1.473 0.685,-2.251c0.774,-1.492 1.393,-1.673 3.559,-3.09c2.167,-1.416 2.167,-2.583 1.842,-3.583c-0.325,-1 -0.175,-2.833 -2.508,-5.5c-2.334,-2.667 -4.334,-2.667 -8.334,-2.833c-4,-0.167 -9.666,0.5 -13.333,1.333c-2.958,0.672 -5.058,4.168 -5.925,6.016c4.257,0.381 14.092,1.984 14.092,1.984l8.065,8.55zm14.234,16.783c0,0 9.201,12.75 12.201,13c3,0.25 25.25,-25 25.25,-25l0,-10.75c0,0 -25.161,20.5 -37.451,18.25l0,4.5zm44.845,22.414l-6.384,-2.973c0.875,1.864 2.705,3.94 6.384,2.973m49.189,11.253l0.004,0.004c3.887,-2.655 9.947,-4.28 18.996,-1.004c0.436,0.158 0.854,0.322 1.273,0.485l-12.886,-6.359l-0.721,1.312l-5.34,-11.543l-3.635,-5.959l-1.383,0.676l0,-2.945l3.459,-2.687c-7.057,-0.325 -11.25,0.74 -13.441,1.628c1.593,4.691 3.834,12.719 2.007,16.381c-1.435,2.876 -3.642,7.847 -5.374,11.828l17.041,-1.817zm100.666,115.333c0,0 -6.384,15.434 -4.7,11.278c-4.038,9.872 -9.223,23.077 -9.3,25.972c-0.022,0.869 -0.134,1.969 -0.3,3.184c0,0 13.634,-1.767 14.634,-4.434c1,-2.666 9.333,-35 9.333,-35l-3.812,-12.916l0,-0.014c-0.944,4.7 -2.74,8.935 -5.855,11.93m76.667,-80.125l-1.631,4.421c0.588,1.177 0.833,2.589 0.339,4.265c-1.395,4.735 -6.832,10.53 -8.983,12.69c0.652,0.861 1.203,1.702 1.608,2.499c3.75,7.371 -12.75,17.25 -16.5,18.63c-0.909,0.333 -2.861,-0.393 -5.283,-1.745c1.331,6.119 0.689,16.69 -0.217,24.115c-1.25,10.25 -25.648,7.714 -25.648,7.714c3.101,-3.287 0,-28.714 0,-28.714l-8.102,-15.75c0,0 -3.5,-9.5 -4.5,-13.5c-0.306,-1.224 0.257,-3.528 1.183,-6.134c-1.503,-1.256 -9.811,-8.304 -10.266,-11.032c-0.055,-0.328 -0.109,-1.148 -0.165,-2.35c0,0.005 -0.002,0.016 -0.002,0.016c0,0 -16.5,-15.102 -19.375,-15.051c0,0 -2.333,-1.644 -8.049,-2.2c0.155,0.911 0.152,1.684 -0.076,2.251c-2,5 0.188,12.5 0.188,12.5l-11.688,-3.833l-8.849,-4.634l6.713,-25.461c-0.805,-3.159 -2.54,-9.344 -4.364,-11.901c-2.267,-3.177 -30.172,-16.51 -35.353,-18.968l-14.647,10.979l-5.786,2.828l10.482,14.51l-0.096,0.175l28.65,12.432l-1.75,2.873l-6.863,-3.386c4.843,3.011 7.881,6.274 9.768,8.981l22.095,11.572l43.689,36.683l0,8.15c0,0 3.96,13.747 3.506,26.973c2.136,4.581 8.415,18.53 7.305,21.861c-1.333,4 -9,35 -12,36.666c-2.434,1.353 -12.826,6.084 -17.083,6.147c-0.817,4.345 -1.797,8.478 -1.797,8.478l2.88,1.75l-23.5,12.125l-17.083,12l-17.083,7l28.166,-19l-6.025,-13.917c-3.798,1.055 -6.808,2.084 -6.808,2.084l-1.542,-9.667l32.542,-8.333c0,0 -6,13.667 -12.167,13.667c-2.372,0 -5.705,0.642 -8.91,1.431c1.305,1.345 2.385,2.79 2.91,4.235c1.21,3.325 3.146,6.459 4.491,8.425l17.009,-9.425c0,0 11.418,-39.959 17.19,-54.381c-0.192,-1.332 -0.419,-2.686 -0.659,-4.002c-0.961,-2.407 -1.86,-4.662 -2.218,-5.556c0.058,0.134 0.123,0.268 0.176,0.403c0.781,1.957 1.452,3.643 2.032,5.099c-0.925,-5.054 -2.032,-9.479 -2.032,-9.479l5.342,8.474c0.06,-0.036 0.117,-0.058 0.169,-0.058c3,0 10,-33.5 0,-47.5c-10,-14 -32.5,-33.1 -32.5,-33.1l-1.79,-2.158l-22.718,-11.132l7.008,14.724l-11.229,-16.567l-13.104,-8.331c0,0 -12.667,-6.102 -17.667,-2.769l-3,2.92l-66.999,2.747c0,0 -24.565,-1.048 -33.004,6.276c5.108,1.791 11.135,5.529 11.923,13.231l0.009,0.009c0,0 -0.005,0.015 -0.006,0.021c0.078,0.782 0.114,1.597 0.078,2.463c0,0 -0.206,-0.264 -0.577,-0.707c-1.316,4.543 -4.757,15.78 -4.757,9.04c0,-5.74 -6.642,-13.836 -10.775,-18.319c-0.611,0.634 -0.861,0.342 -0.907,-0.402c-0.83,0.327 -1.612,0.874 -2.318,1.721c-0.876,1.052 -1.622,1.863 -2.262,2.489c1.583,1.633 2.262,2.844 2.262,2.844l0,10.667c0,0 -7.333,-12.667 -13.333,-10.667c-6,2 -28.667,20.667 -27.333,27.334c1.333,6.666 2,33.676 2,33.676l6.666,0l8.196,-9.676l11.804,-15.334l8.667,-20l-6,29.334l-10,15.676l-4.471,2.99l0,4.667c0,0 12.471,-3.981 12.804,-7.657l2.334,5.99l-14,5.667l-5.948,-3.059l31.956,80.059c0.342,0.363 0.7,0.719 1.059,1.074l54.266,-13.407c0,0 63.666,10 74,32.333c0,0 -71.667,-27.667 -73.667,-23.667c-1.623,3.246 -33.104,9.781 -44.929,12.132c33.546,20.409 99.596,21.202 99.596,21.202l19,-3c-1,4 -14,7 -14,7c-80.667,7.333 -125.333,-33 -125.333,-33l-23.826,-81.691l0,0l-14.841,-7.633c0,0 -8,-26.343 6,-45.01c14,-18.666 17.333,-28.666 26.667,-25.333c1.315,0.47 2.499,0.996 3.584,1.547l9.082,-6.214c0,0 1.355,0.093 3.342,0.507l9.658,-6.173l41.561,-4.431c-5.04,-8.735 -9.894,-14.569 -9.894,-14.569l2.018,-5.55l-12.303,-5.73c-2.396,3.323 -4.059,6.013 -4.059,6.946c0.011,3 -4.239,3.661 -4.239,3.661l-12.5,-12.411l-5.581,-10.75l0,-6.433c-4.236,1.03 -10.634,2.269 -13.003,1.059c-3.304,-1.688 -2.82,-6.52 -2.692,-9.838c-0.516,-0.674 -1.018,-1.331 -1.474,-1.788c-0.655,-0.654 -2.894,-1.593 -5.362,-2.43l-19.138,8.68l-46.312,2.654c-4.515,26.25 -10.176,56.5 -12.938,60.626c-5,7.47 -43.75,42.72 -64.25,38.47c-20.5,-4.25 7.5,-106.37 7.5,-106.37c0,0 51.841,-45.277 73.967,-52.958c-0.157,-0.057 -0.302,-0.116 -0.467,-0.172c0,0 46.224,-5.25 52.362,0c1.807,1.546 6.595,2.854 12.45,3.929c-0.675,-0.262 -1.476,-0.871 -1.527,-2.304c-0.091,-2.5 0.965,-4.625 1.465,-5.75c0.5,-1.125 12.25,-5.375 12.25,-5.375c0,0 11.125,0.75 13.25,1.125c2.125,0.375 6.375,4.5 8.25,6.125c1.875,1.625 4.75,8.625 5,9.375c0.131,0.397 0.367,2.36 0.432,4.052c0.6,0.606 1.185,1.297 1.718,2.083l4.183,-1.926l0,3.333c0,0 15,11.833 13.417,20.667c-0.162,0.902 -0.417,1.727 -0.738,2.488l1.928,2.856c0.947,-0.951 1.313,-1.787 0.81,-2.428c-2.75,-3.5 2,1.25 2,1.25c0,0 1.264,7.303 1.515,13.572c5.466,3.043 24.094,14.128 25.846,24.697c1.074,-0.63 2.095,-1.233 3.059,-1.805c0.026,-3.452 0.157,-30.388 -2.337,-36.547c-0.92,-2.27 3.969,-4.868 10.768,-7.296c-1.956,-4.796 -10.706,-25.592 -15.352,-25.371c-0.436,0.021 -0.759,0.023 -1.003,0.012c-1.501,0.397 -2.896,0.794 -3.913,1.238c-3.491,1.527 -8.834,-1.25 -8.834,-1.25c0,0 -22.833,-16.583 -25.166,-27.583c-1,-0.5 -13.5,-30.333 -8.667,-38.167c4.834,-7.833 41.675,-9 41.675,-9c0,0 51.158,-3.75 52.479,11.25c1.321,15 -17.167,40.5 -17.167,40.5c0,0 -5.654,4 -6.188,5.75c-0.225,0.735 -2.682,2.882 -5.565,5.291l0.246,0.311l0.125,-0.102c0,0 0.321,0.496 0.856,1.345l0.001,0.002c3.284,5.213 14.906,24.211 14.081,30.618c8.271,-2.079 15.124,-3.465 15.124,-3.465c0,0 3.744,1.192 8.771,3.006l-0.23,-0.084l0,-21.746l-10.625,-1.592l0.639,-38.709c0,0 6.611,-19.125 8.486,-18.875c1.875,0.25 13.625,-1.25 13.625,-1.25l-0.345,0.489l0.345,0.261c0,0 83.167,-8 84.167,0c1,8 -26.333,62.862 -49.833,72.431l-28.975,-7.981c-0.375,7.798 -1.547,18.879 -2.026,23.209c4.837,2.258 8.886,4.606 10.306,6.622c0.295,0.419 0.476,0.823 0.528,1.209c0.833,6.177 1.167,3.01 1.167,3.01c0,0 11.166,9 11,11.167c-0.152,1.974 -3.002,23.175 -4.547,27.431c0.386,-0.606 0.911,-1.182 0.963,0.069c0.055,1.291 -2.076,6.186 -3.282,9.589c0.281,0.394 1.448,2.045 2.974,4.348c3.842,-1.408 16.973,-6.019 20.058,-4.448c0,0 11.875,1.178 13,2.261c0.617,0.593 2.058,1.311 3.235,1.839c-0.019,-1.355 -0.037,-2.597 -0.052,-3.698l-2.349,-6.224l7.833,-3c0,0 19.833,16.753 22,22.793c2.167,6.04 7.5,12.54 7.5,12.54c0,0 0.041,0.293 0.096,0.741c2.433,-0.179 5.62,-0.451 7.059,-0.741c1.628,-0.327 4.182,2.469 5.757,4.446l0.088,-0.049c0,0 5.167,-3.23 18.5,0.478c13.333,3.709 12.5,13.833 12.5,13.833"/>
     </g>
     <g id="g308">
      <path fill="#000000" fill-rule="nonzero" id="path310" d="m270.45313,763.9834l2.993,1.729l-12.388,1.729l9.395,-3.458z"/>
     </g>
     <g id="g312">
      <path fill="#000000" fill-rule="nonzero" id="path314" d="m15.78659,826.71039c0,0 0.69,-0.06 1.86,-0.2c-0.76,0.18 -1.39,0.25 -1.86,0.2"/>
     </g>
     <g id="g316">
      <path fill="#000000" fill-rule="nonzero" id="path318" d="m51.78659,756.83011c-3.25,-0.069 -9.5,1.07 -11.25,1.82c-1.23,0.531 -3.57,4.66 -4.86,7.071c-0.54,1.009 -0.89,1.719 -0.89,1.719l0,3.21c0.75,1.75 4.25,0.5 6.5,0c2.25,-0.5 6.5,-2.75 8.12,-4.94c1.63,-2.19 4.13,-1.31 6.88,-6.56c2.75,-5.25 -1.25,-2.25 -4.5,-2.32m-3.75,14.57c-4.75,1.5 -14.25,3.5 -15,2.5c-0.75,-1 -1,-5.5 -1,-5.5c0,0 -2.25,-10 8,-13c10.25,-3 18.25,-4.79 19,-1.27c0.75,3.52 2.75,3.96 0,6.87c-2.75,2.9 -6.25,8.9 -11,10.4"/>
     </g>
     <g id="g320">
      <path fill="#000000" fill-rule="nonzero" id="path322" d="m330.11621,920.98053c14.17,1.34 18.17,-5.5 18.17,-5.5c0,0 4.33,-24.16 -8.67,-26c-13,-1.83 -18.159,9.84 -18.159,9.84c0,0 -5.5,20.33 8.659,21.66m13.17,-35.84c0,0 14.5,4.79 11.171,27.9c-3.341,23.11 -32.841,8.12 -32.841,8.12c0,0 -3.159,-5.18 -3.409,-9.18c-0.25,-4 2.199,-15.83 2.199,-15.83c0,0 4,-10.99 22.88,-11.01"/>
     </g>
     <g id="g324">
      <path fill="#000000" fill-rule="nonzero" id="path326" d="m331.18652,909.48053c4.72,-0.33 4.98,-4.33 4.98,-4.33c0.7,-1 -1.709,-5.83 -4.98,-5.83c-3.28,0 -3.729,3.5 -3.729,3.5c0,0 -1,7 3.729,6.66m4.1,-14.83c6.171,0.67 8.83,9.81 6.33,14.07c-2.5,4.26 -9.33,6.41 -12.83,1.5c-3.5,-4.9 -1.42,-10.9 -1.42,-10.9c0,0 1.75,-5.34 7.92,-4.67"/>
     </g>
     <g id="g328">
      <path fill="#000000" fill-rule="nonzero" id="path330" d="m336.16107,841.90039c-58,-25.125 -87.375,-8.5 -89.375,-8.125c-2,0.375 -1.75,-3.125 -1.75,-3.125l5.125,-3.125l0,-3.25c0,0 13.875,-23.125 34.875,-21.25c18.58,1.659 15.927,13.788 15.068,16.561c-0.111,0.361 -0.193,0.564 -0.193,0.564l-1.375,0.875c0,0.875 37.625,20.875 37.625,20.875"/>
     </g>
     <g id="g332">
      <path fill="#000000" fill-rule="nonzero" id="path334" d="m280.16107,795.4834c4.375,-1.916 12.375,2.667 12.375,2.667c-12,-3.75 -20.096,3.032 -20.096,3.032c0,0 0.214,-0.168 0,-0.907c-0.214,-0.74 3.346,-2.875 7.721,-4.792"/>
     </g>
     <g id="g336">
      <path fill="#000000" fill-rule="nonzero" id="path338" d="m276.23242,735.90039c-3.59,0 -6.5,-2.91 -6.5,-6.5c0,-3.59 2.91,-6.5 6.5,-6.5c3.59,0 6.5,2.91 6.5,6.5c0,3.59 -2.91,6.5 -6.5,6.5"/>
     </g>
     <g id="g340">
      <path fill="#000000" fill-rule="nonzero" id="path342" d="m295.59857,730.65039c-2.243,0 -4.062,-2.127 -4.062,-4.75c0,-2.623 1.819,-4.75 4.062,-4.75c2.244,0 4.062,2.127 4.062,4.75c0,2.623 -1.818,4.75 -4.062,4.75"/>
     </g>
     <g id="g344">
      <path fill="#000000" fill-rule="nonzero" id="path346" d="m314.31348,737.52539c-2.319,0 -4.2,-1.88 -4.2,-4.199c0,-2.32 1.881,-4.2 4.2,-4.2c2.319,0 4.199,1.88 4.199,4.2c0,2.319 -1.88,4.199 -4.199,4.199"/>
     </g>
     <g id="g348">
      <path fill="#000000" fill-rule="nonzero" id="path350" d="m327.61823,749.27539c-2.309,0 -4.181,-1.872 -4.181,-4.181c0,-2.309 1.872,-4.181 4.181,-4.181c2.31,0 4.182,1.872 4.182,4.181c0,2.309 -1.872,4.181 -4.182,4.181"/>
     </g>
     <g id="g352">
      <path fill="#000000" fill-rule="nonzero" id="path354" d="m187.71481,873.15973l12.322,-25.676c0,0 -0.727,19.018 -12.322,25.676"/>
     </g>
     <g id="g356">
      <path fill="#000000" fill-rule="nonzero" id="path358" d="m264.53607,880.79248c-2,-10.392 -6.5,-26.392 -24.5,-22.892c-18,3.5 -22.75,17 -22.25,19.25c0.5,2.247 -3.119,15.215 3.287,21.973c-1.253,-3.082 -2.126,-7.575 -1.533,-13.985c0,0 4.746,14.512 7.746,14.512c3,0 5.5,6.679 16.5,3.839c11,-2.839 22.75,-12.305 20.75,-22.697m-38.929,24.358c0,0 -2.677,-1.466 -4.529,-6.013c-0.392,-0.263 -17.089,-11.714 2.196,-38.816c0,0 19.96,-19.171 41.487,2.079c0,0 17.457,21.272 -7.975,41.089c0,0 -11.093,10.572 -31.179,1.661"/>
     </g>
     <g id="g360">
      <path fill="#000000" fill-rule="nonzero" id="path362" d="m235.2861,890.61377c0,0 8.197,-0.797 7.016,-3.797c0,0 -0.97,-11.71 -9.849,-1.679c0,0 -3.833,-8.128 3.333,-14.891c7.167,-6.763 15.5,5.737 15.5,5.737c0,0 4,12.26 -2.666,14.63c-6.667,2.37 -13.334,0 -13.334,0"/>
     </g>
     <g id="g364">
      <path fill="#fdff28" fill-rule="nonzero" id="path366" d="m318.3623,780.79791c-0.583,0.583 -0.75,2.75 -0.365,3.417c0.384,0.666 1.699,0.916 2.032,0.833c0.333,-0.083 0.917,-1.25 1.25,-1.788c0.333,-0.537 -0.417,-3.379 -0.917,-4.045c-0.051,-0.068 -0.136,-0.242 -0.236,-0.467c-0.481,0.571 -1.317,1.603 -1.764,2.05m9.689,-11.112c-0.311,0.97 -2.355,3.445 -3.022,4.029c-0.383,0.335 -1.756,1.742 -2.902,2.927c0.593,1.716 1.098,3.508 1.31,4.156c0.408,1.25 -0.643,8.351 -3.032,9.202c-2.389,0.852 -5.876,-3.202 -7.376,-5.366c-1.424,-2.054 0.08,-6.143 2.161,-7.262c0.111,-0.059 0.225,-0.111 0.339,-0.153l2.25,-1.304c0,0 0.434,-0.33 0.955,-0.706c-1.059,-2.844 -2.26,-6.241 -2.455,-6.828c-0.333,-1 -0.917,-6.666 -0.917,-6.666l1.334,2.666l0.416,-2.666l0.885,2.269c0,0 1.282,8.064 2.408,9.057c0.165,0.146 0.339,0.398 0.516,0.711c0.617,-0.745 1.618,-2.398 1.941,-2.494c0.417,-0.123 3.167,-4.672 3.167,-4.672l-0.75,3.462c0,0 3.167,-2.5 3.25,-2.606c0.083,-0.107 -0.167,1.273 -0.478,2.244"/>
     </g>
    </g>
   </g>
  </g>
 </g>
</svg>