<?xml version="1.0" standalone="no"?>
<!DOCTYPE svg PUBLIC "-//W3C//DTD SVG 20010904//EN"
 "http://www.w3.org/TR/2001/REC-SVG-20010904/DTD/svg10.dtd">
<svg version="1.0" xmlns="http://www.w3.org/2000/svg"
 width="960.000000pt" height="960.000000pt" viewBox="0 0 960.000000 960.000000"
 preserveAspectRatio="xMidYMid meet">
<metadata>
Created by potrace 1.11, written by Peter Selinger 2001-2013
</metadata>
<g transform="translate(0.000000,960.000000) scale(0.100000,-0.100000)"
fill="#000000" stroke="none">
<path d="M3064 8846 c-9 -24 12 -44 28 -28 10 10 8 16 -5 29 -15 15 -17 15
-23 -1z"/>
<path d="M2513 8813 c-25 -5 -53 -38 -53 -63 0 -9 -18 -24 -42 -35 -49 -21
-131 -94 -163 -145 -21 -34 -28 -37 -116 -55 -57 -11 -121 -33 -164 -54 -99
-51 -105 -65 -105 -258 l0 -153 -60 -65 c-395 -436 -388 -1102 17 -1525 42
-45 106 -104 142 -131 86 -65 264 -153 373 -183 588 -167 1212 180 1383 768
34 121 45 193 45 316 0 123 -11 195 -45 316 -46 158 -129 309 -231 423 l-46
52 1 167 c1 209 -3 221 -104 273 -44 23 -104 42 -163 54 -90 17 -94 19 -122
59 -36 54 -98 109 -150 136 -25 13 -47 34 -57 55 -10 21 -28 38 -46 45 -29 10
-247 12 -294 3z m296 -56 c6 -8 8 -17 4 -20 -8 -9 -298 -9 -306 0 -4 3 -2 12
4 20 16 19 282 19 298 0z m-268 -77 l39 0 0 -74 c0 -93 -21 -126 -80 -126 -43
0 -58 -13 -40 -35 10 -13 63 -15 317 -15 l304 0 24 -25 c22 -21 25 -32 25
-102 l0 -78 -33 -15 c-29 -14 -32 -19 -35 -67 l-3 -53 -399 0 -399 0 -3 53
c-3 48 -6 53 -35 67 l-33 15 0 81 c0 107 14 122 120 126 69 3 75 5 78 26 3 20
0 22 -51 22 -29 0 -56 3 -60 6 -11 11 32 83 74 123 43 43 116 83 137 76 8 -3
31 -5 53 -5z m367 -24 c53 -28 152 -152 135 -170 -4 -3 -64 -6 -134 -6 -126 0
-128 0 -148 26 -17 22 -21 41 -21 100 l0 73 48 3 c49 3 74 -2 120 -26z m-224
-56 c2 -41 7 -85 11 -97 7 -21 4 -23 -35 -23 -39 0 -42 2 -35 23 4 12 9 56 11
97 2 41 4 76 4 78 0 2 9 2 21 0 18 -3 20 -11 23 -78z m-508 -160 c-35 -39 -36
-42 -36 -120 0 -44 -4 -80 -8 -80 -24 0 -122 35 -159 56 -46 26 -62 57 -42 80
20 25 106 64 183 84 99 26 103 25 62 -20z m1028 20 c96 -25 171 -62 187 -92
11 -20 7 -26 -35 -63 -25 -23 -46 -46 -46 -52 0 -18 25 -22 51 -7 13 7 27 13
32 14 4 0 7 -67 7 -148 0 -164 -1 -168 -75 -205 -46 -23 -163 -57 -196 -57
l-30 0 3 158 3 157 69 17 c38 9 72 22 77 29 13 22 -11 41 -43 34 l-28 -7 0 74
c0 76 -21 131 -55 144 -16 6 -21 24 -7 24 5 0 43 -9 86 -20z m-1199 -234 c33
-14 93 -33 133 -42 l72 -18 0 -162 0 -162 -61 14 c-34 8 -65 17 -70 20 -4 2
-16 0 -26 -6 -22 -14 -73 2 -73 23 0 7 -13 26 -30 42 l-30 29 0 149 c0 116 3
148 13 144 6 -3 39 -17 72 -31z m320 -196 c-3 -5 -15 -10 -25 -10 -10 0 -22 5
-25 10 -4 6 7 10 25 10 18 0 29 -4 25 -10z m265 -28 c0 -48 14 -62 64 -62 50
0 76 23 76 67 l0 33 104 0 104 0 -5 -67 c-6 -86 -18 -126 -51 -165 -45 -53
-92 -68 -222 -68 -128 0 -173 14 -222 66 -36 39 -47 72 -55 160 l-6 74 107 0
106 0 0 -38z m80 29 c0 -5 3 -16 6 -25 4 -12 0 -16 -15 -16 -20 0 -30 28 -14
43 9 10 23 9 23 -2z m375 -1 c-3 -5 -17 -10 -31 -10 -13 0 -24 5 -24 10 0 6
14 10 31 10 17 0 28 -4 24 -10z m-315 -379 c0 -31 -6 -44 -26 -60 -54 -43
-114 -11 -114 59 l0 40 70 0 70 0 0 -39z m-180 -54 c18 -38 73 -77 109 -77 37
0 87 34 107 72 9 18 18 34 19 36 2 2 19 -4 39 -12 53 -22 50 -56 -12 -116 -69
-67 -139 -84 -223 -55 -58 21 -103 57 -123 100 -19 40 -12 59 29 75 33 14 39
11 55 -23z m-589 -617 c20 -52 35 -98 32 -102 -8 -15 -38 -8 -51 12 -8 13 -23
20 -42 20 -19 0 -33 -7 -40 -20 -11 -20 -50 -28 -50 -10 0 11 56 153 71 182
20 38 43 15 80 -82z m176 74 c7 -10 13 -32 13 -50 0 -36 -29 -64 -67 -64 -17
0 -22 -7 -25 -32 -2 -25 -8 -33 -23 -33 -18 0 -20 8 -23 89 -2 49 0 96 3 104
8 21 104 11 122 -14z m148 1 c30 -30 31 -54 4 -89 -14 -17 -30 -26 -50 -26
-27 0 -29 -3 -29 -35 0 -28 -4 -35 -20 -35 -19 0 -20 7 -20 105 l0 105 45 0
c35 0 52 -6 70 -25z m83 -63 l3 -82 30 0 c24 0 30 -4 27 -17 -3 -14 -14 -18
-53 -18 l-50 0 -3 89 c-3 101 1 119 25 114 15 -3 18 -16 21 -86z m117 -17 c0
-93 -1 -100 -20 -100 -18 0 -20 8 -23 89 -3 101 1 119 25 114 16 -3 18 -16 18
-103z m192 73 c47 -44 16 -66 -37 -27 -27 21 -30 21 -54 6 -33 -22 -41 -52
-21 -83 23 -36 42 -40 75 -15 58 43 84 13 29 -33 -66 -56 -159 -10 -159 79 0
90 101 135 167 73z m131 20 c12 -16 72 -168 72 -185 0 -21 -38 -15 -50 7 -7
13 -21 20 -40 20 -19 0 -33 -7 -40 -20 -10 -19 -40 -27 -52 -15 -3 3 10 47 30
98 41 106 56 124 80 95z m180 -9 c2 -10 -6 -19 -18 -22 -19 -5 -21 -12 -20
-74 2 -94 2 -93 -20 -93 -17 0 -19 8 -22 83 -3 76 -5 82 -25 85 -22 3 -30 21
-16 36 4 4 32 6 63 4 41 -2 56 -7 58 -19z m60 -87 c3 -103 3 -103 -20 -100
-21 3 -23 8 -26 83 -4 98 3 127 26 123 14 -3 17 -18 20 -106z m167 94 c98 -41
74 -179 -34 -193 -36 -5 -44 -2 -76 30 -44 44 -48 91 -10 136 22 26 35 32 78
40 4 0 23 -5 42 -13z m155 -44 l35 -54 5 54 c4 45 8 53 25 53 19 0 20 -7 20
-100 0 -87 -2 -100 -17 -103 -12 -2 -30 16 -57 59 l-40 63 -3 -60 c-3 -51 -6
-59 -23 -59 -18 0 -20 8 -23 89 -2 49 0 96 3 103 10 27 40 8 75 -45z m-1478
-252 c28 -28 30 -35 26 -82 -4 -37 -12 -57 -27 -70 -27 -21 -82 -33 -116 -24
-24 6 -25 8 -25 100 0 51 3 96 7 99 3 4 28 7 55 7 42 0 54 -5 80 -30z m158 11
c0 -15 -8 -21 -32 -23 -25 -2 -33 -8 -33 -23 0 -15 7 -19 30 -20 44 0 47 -33
3 -37 -25 -2 -33 -8 -33 -23 0 -15 8 -21 33 -23 25 -3 32 -8 30 -20 -3 -13
-14 -17 -53 -17 l-50 0 -3 103 -3 102 56 0 c48 0 55 -3 55 -19z m73 -36 c9
-28 20 -57 23 -65 3 -9 14 12 25 48 19 61 41 84 60 65 6 -6 -3 -44 -23 -101
-48 -135 -68 -135 -115 1 -17 50 -29 96 -26 100 13 20 39 -2 56 -48z m245 33
c2 -12 -5 -17 -30 -20 -25 -2 -33 -8 -33 -23 0 -15 7 -19 30 -20 44 0 47 -33
3 -37 -25 -2 -33 -8 -33 -23 0 -15 8 -21 33 -23 25 -3 32 -8 30 -20 -3 -19
-54 -28 -94 -18 -23 6 -24 10 -24 100 0 51 3 96 7 100 4 4 30 6 58 4 37 -2 51
-7 53 -20z m70 -65 l3 -83 30 0 c24 0 30 -4 27 -17 -3 -14 -14 -18 -53 -18
l-50 0 -3 103 c-3 103 -3 103 20 100 22 -3 23 -8 26 -85z m220 62 c86 -72 11
-209 -94 -175 -78 26 -98 108 -40 166 43 43 90 46 134 9z m177 5 c41 -45 9
-120 -51 -120 -20 0 -24 -5 -24 -29 0 -33 -11 -44 -34 -35 -13 5 -16 23 -16
98 0 51 3 96 7 99 3 4 27 7 53 7 34 0 52 -5 65 -20z m109 -27 c10 -27 20 -54
22 -62 6 -20 12 -11 33 50 16 49 21 54 47 54 l29 0 0 -100 c0 -82 -3 -100 -15
-100 -11 0 -16 16 -20 60 -6 57 -6 59 -18 32 -6 -15 -15 -39 -18 -52 -7 -29
-26 -46 -40 -37 -6 4 -20 32 -30 62 l-19 55 -5 -60 c-4 -44 -9 -60 -20 -60
-12 0 -16 18 -18 89 -3 105 0 116 31 116 20 0 27 -9 41 -47z m274 25 c2 -12
-5 -17 -30 -20 -25 -2 -33 -8 -33 -23 0 -15 7 -19 30 -20 44 0 47 -33 3 -37
-25 -2 -33 -8 -33 -23 0 -15 8 -21 33 -23 25 -3 32 -8 30 -20 -3 -19 -54 -28
-94 -18 -23 6 -24 10 -24 100 0 51 3 96 7 100 4 4 30 6 58 4 37 -2 51 -7 53
-20z m102 -40 l39 -62 3 60 c3 51 6 59 23 59 18 0 20 -8 23 -96 2 -82 0 -98
-14 -103 -21 -8 -37 5 -69 60 -14 24 -29 44 -34 44 -4 0 -6 -22 -3 -48 3 -40
1 -50 -13 -56 -9 -3 -21 -4 -26 0 -10 6 -13 187 -2 197 17 17 37 2 73 -55z
m228 40 c2 -11 -5 -18 -19 -20 -21 -3 -22 -7 -20 -79 2 -63 -1 -77 -14 -83
-29 -11 -35 3 -35 81 0 66 -2 75 -20 80 -11 3 -20 14 -20 25 0 17 6 19 62 16
49 -2 63 -7 66 -20z"/>
<path d="M2306 8269 c-32 -25 -35 -70 -6 -99 19 -19 33 -20 358 -20 l339 0 21
23 c30 32 28 71 -4 96 -26 20 -38 21 -354 21 -316 0 -328 -1 -354 -21z m679
-49 c0 -13 -43 -15 -319 -18 -187 -1 -324 2 -329 7 -28 28 10 31 326 29 278
-3 322 -5 322 -18z"/>
<path d="M3258 8177 c-57 -19 -88 -34 -88 -43 0 -26 31 -27 104 -4 77 24 96
35 96 55 0 23 -23 21 -112 -8z"/>
<path d="M3303 8118 c-26 -13 -30 -36 -8 -44 24 -9 76 16 73 35 -4 20 -35 24
-65 9z"/>
<path d="M2094 8147 c-8 -23 2 -35 37 -42 22 -5 36 -2 47 9 20 20 9 32 -40 41
-29 6 -39 4 -44 -8z"/>
<path d="M2094 7995 c-8 -21 3 -31 43 -38 21 -4 35 -1 44 9 16 19 4 31 -43 39
-30 6 -39 4 -44 -10z"/>
<path d="M2103 7943 c-33 -12 2 -53 44 -53 28 0 50 17 37 30 -14 14 -66 28
-81 23z"/>
<path d="M2726 7919 c-53 -41 -18 -129 51 -129 32 0 73 42 73 75 0 33 -41 75
-73 75 -13 0 -36 -9 -51 -21z m64 -52 c0 -8 -3 -17 -7 -20 -9 -9 -34 13 -27
24 8 14 34 11 34 -4z"/>
<path d="M1892 6980 c-7 -19 -6 -26 5 -28 21 -5 25 2 14 29 l-9 24 -10 -25z"/>
<path d="M2060 7010 c0 -33 19 -40 40 -15 10 12 10 18 0 30 -21 25 -40 18 -40
-15z"/>
<path d="M2214 7025 c-9 -23 4 -47 23 -43 22 4 30 38 11 49 -19 13 -28 11 -34
-6z"/>
<path d="M2780 6991 c0 -5 -3 -16 -6 -25 -4 -11 0 -16 14 -16 15 0 19 5 15 20
-6 22 -23 38 -23 21z"/>
<path d="M3142 7024 c-44 -30 -18 -114 35 -114 22 0 53 39 53 65 0 26 -31 65
-53 65 -7 0 -23 -7 -35 -16z"/>
<path d="M1800 6695 c0 -70 7 -78 48 -49 42 29 19 114 -31 114 -14 0 -17 -11
-17 -65z"/>
<path d="M2562 6744 c-28 -19 -29 -67 -2 -94 25 -25 41 -25 68 0 27 26 28 64
2 90 -24 24 -38 25 -68 4z"/>
<path d="M2762 6733 c3 -32 25 -37 42 -10 8 14 8 20 -4 27 -28 18 -41 11 -38
-17z"/>
<path d="M3033 8813 c-18 -6 -16 -30 2 -37 9 -3 18 1 22 10 7 18 -7 33 -24 27z"/>
<path d="M3100 8796 c0 -17 -5 -23 -17 -22 -12 0 -18 -6 -18 -18 0 -30 24 -31
35 -2 5 14 16 26 25 26 20 0 19 26 -1 34 -23 9 -24 8 -24 -18z"/>
<path d="M6832 8798 c-7 -7 -12 -44 -12 -90 l0 -78 -52 0 c-142 -1 -267 -51
-355 -143 -66 -69 -96 -119 -117 -199 -20 -77 -24 -84 -53 -97 -45 -20 -136
-96 -211 -175 -149 -157 -244 -340 -287 -555 -24 -115 -16 -393 13 -496 103
-367 359 -647 705 -772 122 -44 177 -54 332 -60 173 -6 252 3 393 48 163 52
276 117 409 236 353 314 467 844 275 1278 -76 172 -203 332 -354 448 l-68 52
0 229 0 229 25 23 c53 49 11 143 -58 130 -69 -13 -88 -82 -36 -132 l31 -29 -4
-202 c-2 -111 -7 -205 -11 -209 -3 -4 -13 -1 -22 6 -10 9 -14 31 -13 79 1 84
-37 181 -71 181 -26 0 -26 -13 0 -67 12 -26 22 -66 23 -96 l1 -52 -75 -5 c-85
-6 -125 -25 -157 -73 -11 -18 -40 -63 -64 -100 -35 -55 -51 -70 -81 -79 -62
-18 -68 -10 -68 86 0 79 1 85 23 91 31 10 84 52 99 78 7 12 15 58 18 102 l5
80 58 3 c48 3 57 6 57 21 0 23 -19 31 -76 31 -44 0 -45 1 -42 28 3 24 8 27 44
30 22 2 61 -4 85 -13 77 -29 91 -30 87 -9 -4 27 -82 62 -153 70 -39 4 -66 13
-78 25 -13 14 -32 19 -71 19 -62 0 -66 5 -66 80 0 51 -9 67 -28 48z m622 -54
c7 -19 -10 -44 -29 -44 -19 0 -36 25 -29 44 3 9 16 16 29 16 13 0 26 -7 29
-16z m-496 -249 c4 -140 -7 -186 -48 -215 l-30 -21 0 181 0 181 38 -3 37 -3 3
-120z m-173 -167 c4 -134 8 -247 8 -253 1 -6 -36 -12 -88 -15 -75 -4 -90 -8
-93 -23 -5 -23 7 -26 113 -29 l90 -3 3 -47 c2 -36 0 -48 -11 -48 -37 0 -67
-93 -67 -207 0 -44 25 -73 62 -73 14 0 18 -8 18 -34 0 -34 -1 -35 -47 -38 -41
-3 -48 -6 -51 -25 -3 -21 0 -23 47 -23 l51 0 0 -65 0 -65 -65 0 c-106 0 -181
42 -227 127 -24 44 -28 66 -37 199 -6 82 -11 183 -13 224 l-3 75 37 3 c38 3
59 29 36 44 -7 4 -39 8 -70 8 l-58 0 0 79 c0 82 -13 110 -45 97 -12 -4 -15
-23 -15 -80 0 -81 -15 -109 -26 -50 -28 153 72 351 213 420 66 33 102 42 174
43 l56 1 8 -242z m520 -220 c-22 -476 -27 -542 -39 -572 -8 -19 -10 -40 -5
-53 5 -14 3 -32 -5 -47 -12 -23 -14 -24 -29 -9 -14 14 -19 14 -60 -10 -24 -15
-47 -23 -51 -20 -3 3 -6 65 -6 137 0 148 -7 167 -65 186 -20 7 -66 10 -103 8
l-67 -3 -3 123 -3 122 33 0 c67 0 113 34 173 131 74 117 91 129 172 129 l64 0
-6 -122z m94 38 c12 -11 15 -28 13 -60 -4 -41 -7 -46 -29 -46 -19 0 -24 4 -19
16 3 9 6 36 6 60 0 47 5 52 29 30z m-1132 -98 c-3 -8 -6 -5 -6 6 -1 11 2 17 5
13 3 -3 4 -12 1 -19z m1243 -49 c0 -32 -4 -49 -11 -47 -6 2 -10 7 -10 11 1 4
1 28 1 53 0 27 4 43 10 39 6 -3 10 -29 10 -56z m-1212 -44 c-3 -3 -9 2 -12 12
-6 14 -5 15 5 6 7 -7 10 -15 7 -18z m126 -33 c3 -5 8 -49 12 -99 6 -86 6 -91
-14 -97 -31 -10 -89 18 -106 53 -20 38 -20 54 -1 91 22 43 94 77 109 52z m986
-51 c0 -39 -30 -114 -51 -126 -9 -6 -11 3 -6 40 4 26 7 65 7 85 0 33 3 38 25
38 22 0 25 -5 25 -37z m-592 -108 c-2 -48 -7 -76 -13 -73 -10 5 -10 61 0 118
10 56 16 35 13 -45z m552 -127 c0 -3 -4 -8 -10 -11 -5 -3 -10 -1 -10 4 0 6 5
11 10 11 6 0 10 -2 10 -4z m-1410 -535 c20 -1 70 -48 70 -66 0 -20 -56 -20
-64 0 -8 22 -63 19 -76 -4 -14 -28 -12 -52 7 -73 21 -24 45 -23 68 2 19 21 50
26 60 10 17 -27 -48 -80 -98 -80 -13 0 -39 10 -58 23 -45 30 -59 83 -37 130
16 34 68 67 97 62 9 -2 23 -4 31 -4z m124 3 c13 -5 16 -22 16 -85 0 -78 0 -79
26 -79 21 0 25 3 19 18 -20 46 -17 67 18 103 19 20 49 39 67 42 43 9 95 -15
115 -52 21 -41 24 -39 18 8 -5 34 -2 40 17 46 33 11 43 -8 41 -77 0 -35 3 -69
8 -77 18 -28 31 1 31 74 0 65 2 74 20 80 34 11 40 -3 40 -90 0 -78 -2 -85 -26
-104 -29 -23 -59 -26 -98 -11 -19 7 -26 17 -28 47 -4 38 -4 38 -15 12 -6 -15
-24 -36 -40 -49 -23 -18 -36 -21 -77 -16 -26 3 -54 10 -61 16 -9 8 -14 6 -19
-5 -4 -11 -20 -15 -61 -15 l-55 0 0 104 c0 74 4 106 13 109 6 3 13 6 14 6 1 1
8 -2 17 -5z m597 -20 c49 -45 48 -126 -2 -168 -25 -21 -41 -26 -85 -26 -36 0
-54 4 -55 13 -3 36 4 193 8 201 9 13 115 -3 134 -20z m235 5 c16 -13 19 -55 4
-64 -5 -3 -10 -12 -10 -18 0 -7 5 -4 11 6 12 20 59 23 59 4 0 -7 -7 -23 -17
-36 -15 -23 -15 -25 3 -38 14 -11 16 -17 8 -31 -13 -21 -54 -29 -54 -11 0 10
-3 10 -12 1 -7 -7 -25 -12 -40 -12 -58 0 -104 84 -60 109 14 8 15 12 5 22 -33
33 7 90 58 84 17 -3 37 -10 45 -16z m288 11 c19 0 66 -46 66 -65 0 -20 -43
-20 -60 0 -18 22 -67 19 -80 -4 -14 -28 -12 -52 7 -73 21 -24 45 -23 68 2 10
11 29 20 42 20 19 0 24 -5 21 -22 -4 -27 -61 -68 -95 -68 -57 0 -113 56 -113
112 0 52 73 115 118 102 8 -2 19 -4 26 -4z m112 2 c6 -4 16 -20 22 -37 7 -20
11 -24 11 -11 1 10 11 27 22 37 18 16 35 18 102 16 94 -4 112 -18 103 -78 -4
-24 -1 -40 8 -48 10 -9 12 0 10 49 -3 72 7 82 73 78 44 -3 48 -5 48 -28 0 -21
-5 -25 -30 -25 -43 -1 -40 -29 3 -33 28 -3 33 -7 30 -25 -2 -17 -11 -23 -35
-25 -47 -5 -44 -32 2 -32 31 0 35 -3 35 -25 0 -25 -1 -26 -62 -23 -60 3 -63 4
-60 28 l3 24 -29 -27 c-26 -25 -36 -28 -83 -25 l-54 3 0 88 c0 48 -3 87 -6 87
-12 0 -49 -107 -49 -143 0 -34 -2 -37 -30 -37 -26 0 -30 4 -30 28 0 28 -30
125 -49 160 -8 15 -8 22 2 25 18 8 31 8 43 -1z m557 -23 c22 -28 22 -60 -2
-91 -19 -24 -19 -25 -1 -53 22 -33 18 -45 -14 -45 -15 0 -29 12 -44 38 l-22
37 0 -38 c0 -36 -2 -38 -27 -35 l-28 3 -3 99 c-2 73 1 102 10 108 23 16 111 1
131 -23z m-1488 -273 c24 -24 24 -24 27 -2 3 19 9 21 63 21 55 0 60 -2 63 -22
3 -20 -1 -23 -33 -23 -28 0 -36 -4 -33 -16 2 -11 16 -17 38 -20 31 -2 37 1 49
27 14 32 57 59 94 59 34 0 91 -41 95 -68 3 -17 -2 -22 -21 -22 -13 0 -32 9
-42 20 -10 11 -24 20 -32 20 -20 0 -53 -37 -53 -60 0 -11 9 -29 20 -40 20 -20
20 -20 55 0 48 27 77 27 73 -1 -12 -82 -198 -83 -198 -2 0 20 -5 23 -41 23
-33 0 -40 -3 -37 -17 2 -12 14 -19 36 -21 28 -3 33 -7 30 -25 -2 -18 -11 -23
-42 -25 -53 -5 -86 5 -86 25 0 15 -1 15 -18 0 -19 -17 -37 -21 -88 -19 -27 2
-32 7 -38 34 -4 21 -2 34 6 40 19 12 25 10 48 -14 21 -23 36 -19 27 6 -3 8
-21 18 -40 21 -38 7 -48 28 -39 83 3 24 10 32 31 35 53 8 62 6 86 -17z m433
-51 c3 -88 7 -101 27 -85 9 8 15 36 17 83 3 69 4 72 28 72 24 0 25 -3 28 -69
2 -38 -2 -82 -8 -97 -14 -33 -56 -50 -104 -42 -40 6 -46 24 -46 133 0 73 4 82
35 78 18 -3 20 -11 23 -73z m247 51 c24 -24 24 -24 27 -2 3 20 9 21 121 24
l118 3 12 -31 c14 -37 25 -38 29 -2 2 21 9 28 32 30 45 6 49 -9 16 -76 -16
-34 -30 -78 -30 -96 0 -26 -5 -36 -20 -41 -29 -9 -40 2 -40 38 0 18 -9 47 -20
65 -11 18 -20 39 -20 47 0 8 -9 15 -20 15 -18 0 -20 -7 -20 -79 0 -83 -5 -91
-51 -91 -17 0 -19 8 -19 85 0 69 -3 85 -15 85 -12 0 -15 -16 -15 -80 0 -44 -3
-80 -7 -81 -5 0 -34 -3 -65 -5 -51 -4 -58 -2 -58 14 0 10 -7 27 -15 38 -14 18
-14 17 -15 -13 0 -36 -11 -47 -40 -38 -18 6 -20 15 -20 104 0 54 3 101 7 104
3 4 28 7 55 7 38 0 54 -5 73 -24z"/>
<path d="M6518 8294 c-30 -16 -58 -61 -58 -94 0 -34 28 -78 60 -95 16 -8 38
-15 50 -15 12 0 34 7 50 15 32 17 60 61 60 95 0 34 -28 78 -60 95 -36 19 -67
19 -102 -1z m80 -54 c26 -25 28 -52 6 -75 -24 -23 -66 -15 -83 17 -15 25 -14
29 8 52 29 31 41 32 69 6z"/>
<path d="M6575 7960 c-12 -19 9 -31 68 -37 47 -5 58 -3 63 11 9 24 3 27 -64
33 -41 4 -62 2 -67 -7z"/>
<path d="M6633 7864 c-10 -26 14 -41 35 -21 15 16 15 19 2 27 -21 14 -30 12
-37 -6z"/>
<path d="M7021 7944 c-60 -50 -46 -140 26 -170 66 -28 130 11 140 85 5 36 2
44 -30 76 -44 44 -91 48 -136 9z m96 -36 c22 -29 22 -48 -2 -75 -23 -27 -25
-27 -52 -13 -34 19 -41 54 -17 81 19 22 57 25 71 7z"/>
<path d="M6233 7049 c-24 -9 -39 -48 -29 -74 3 -8 17 -20 31 -27 21 -9 28 -8
45 7 26 24 25 48 -2 78 -18 19 -28 23 -45 16z"/>
<path d="M6600 7057 c-1 -1 -2 -28 -3 -59 -2 -48 1 -58 14 -58 26 0 41 26 37
66 -2 27 -9 39 -25 45 -13 5 -23 7 -23 6z"/>
<path d="M6855 6950 c3 -5 11 -10 16 -10 6 0 7 5 4 10 -3 6 -11 10 -16 10 -6
0 -7 -4 -4 -10z"/>
<path d="M7495 7049 c-4 -6 -3 -15 3 -21 6 -6 11 -4 15 6 7 18 -9 31 -18 15z"/>
<path d="M7492 6958 c7 -19 38 -22 38 -4 0 10 -9 16 -21 16 -12 0 -19 -5 -17
-12z"/>
<path d="M7796 7053 c-8 -8 -8 -53 0 -53 8 0 33 32 34 41 0 10 -27 19 -34 12z"/>
<path d="M6325 6770 c-3 -6 6 -15 22 -21 15 -6 36 -18 45 -26 17 -15 18 -14
18 10 0 20 -4 24 -19 20 -10 -2 -25 3 -34 11 -18 19 -24 20 -32 6z"/>
<path d="M6990 6755 c0 -18 5 -25 18 -25 26 0 33 10 21 31 -14 28 -39 24 -39
-6z"/>
<path d="M7071 6708 c-11 -21 -11 -29 0 -49 l14 -24 3 28 c2 15 2 37 0 49 -3
21 -3 21 -17 -4z"/>
<path d="M2148 8732 c-7 -10 -21 -21 -30 -25 -23 -8 -23 -26 -2 -34 10 -4 22
1 29 10 15 21 35 22 35 2 0 -8 9 -15 20 -15 12 0 20 7 20 16 0 9 -9 18 -20 21
-11 3 -20 11 -20 19 0 22 -18 25 -32 6z"/>
<path d="M2142 8653 c5 -26 38 -29 38 -4 0 15 -6 21 -21 21 -14 0 -19 -5 -17
-17z"/>
<path d="M6405 8631 c-9 -15 13 -51 31 -51 11 0 14 8 12 27 -3 28 -30 43 -43
24z"/>
<path d="M6340 8581 c0 -23 14 -41 31 -41 21 0 25 20 7 38 -14 14 -38 16 -38
3z"/>
<path d="M6287 8514 c-12 -12 14 -34 40 -34 18 0 24 5 21 18 -3 17 -48 29 -61
16z"/>
<path d="M1470 5267 c-74 -22 -120 -48 -180 -104 l-58 -53 -127 0 c-115 0
-126 -2 -123 -17 3 -16 17 -18 106 -21 115 -3 114 -2 81 -77 -12 -26 -23 -79
-26 -120 -5 -66 -9 -75 -34 -94 -22 -17 -29 -30 -29 -56 0 -43 29 -65 87 -65
53 0 56 -15 7 -25 -51 -9 -82 -32 -105 -76 -25 -50 -24 -89 4 -129 33 -49 70
-72 115 -74 38 -1 41 -3 47 -35 18 -93 92 -191 180 -237 42 -22 55 -34 55 -51
0 -23 -1 -23 -161 -23 l-161 0 -39 -39 -39 -39 0 -112 c0 -110 0 -111 23 -108
21 3 22 9 27 101 5 93 7 100 33 123 24 20 39 24 98 24 l69 0 0 -118 c0 -125 8
-149 42 -131 16 9 18 23 18 129 l0 120 43 0 c37 0 45 -4 60 -30 47 -79 171
-79 212 0 l16 30 122 0 c67 0 132 -3 144 -6 30 -8 43 -52 43 -140 0 -55 3 -74
13 -74 8 0 22 -9 31 -19 36 -40 46 -17 46 101 l0 110 -39 39 -39 39 -161 0
-161 0 0 23 c0 16 9 28 28 36 52 23 102 64 102 82 0 27 -26 24 -79 -10 -124
-80 -289 -63 -391 39 -63 63 -88 127 -95 240 -3 52 -8 128 -11 168 -5 71 -4
72 19 72 27 0 52 23 42 40 -3 6 -44 10 -95 10 -87 0 -120 11 -89 31 8 5 210 9
449 9 239 0 441 -4 449 -9 41 -26 -8 -31 -325 -31 l-325 0 3 -22 3 -23 263 -3
263 -2 -5 -58 c-3 -31 -8 -104 -11 -161 -3 -57 -13 -122 -20 -145 -20 -55 -19
-76 3 -76 21 0 47 48 58 105 5 26 10 35 21 31 28 -11 91 14 121 48 75 85 39
198 -72 228 -58 15 -59 28 -1 28 82 0 114 67 55 118 -25 22 -30 34 -30 73 0
61 -32 162 -70 222 -52 82 -46 87 107 87 94 0 104 2 101 18 -3 15 -18 17 -124
20 -99 2 -123 0 -134 -13 -16 -19 -34 -19 -50 0 -14 17 -60 21 -60 5 0 -5 12
-21 27 -34 36 -34 21 -54 -28 -37 -17 6 -65 11 -105 11 -105 0 -104 1 -104
-181 0 -93 -4 -149 -10 -149 -6 0 -10 56 -10 149 0 184 2 181 -111 181 -88 0
-125 -13 -156 -56 -20 -27 -43 -26 -43 0 0 20 82 92 137 120 79 39 160 52 243
38 39 -7 77 -12 85 -12 23 0 18 28 -7 41 -33 18 -204 22 -258 6z m464 -220
c14 -23 32 -63 41 -87 19 -54 31 -160 19 -160 -68 -4 -139 -2 -137 3 2 4 10
21 18 37 24 47 30 148 12 191 -11 27 -12 40 -4 48 18 18 25 13 51 -32z m-474
9 c0 -25 15 -37 38 -28 6 2 12 12 12 22 0 11 5 22 10 25 6 4 10 -43 10 -134
l0 -141 -27 0 c-21 0 -24 3 -15 12 20 20 14 45 -14 52 -16 4 -29 17 -36 37 -8
23 -16 29 -32 27 -49 -7 -22 -87 37 -113 l32 -14 -36 -1 c-30 0 -43 7 -68 35
-17 20 -31 42 -31 50 0 7 -3 20 -6 28 -4 12 0 14 14 10 32 -8 39 33 11 63 -20
21 -21 27 -10 48 16 28 45 44 84 45 22 1 27 -3 27 -23z m224 -28 c14 -10 36
11 36 34 0 16 6 19 32 16 29 -3 32 -7 33 -33 0 -26 3 -30 28 -28 15 1 27 -2
27 -7 0 -5 3 -15 6 -23 4 -11 -2 -16 -23 -19 -37 -4 -43 -35 -9 -48 30 -11 32
-20 11 -60 -23 -45 -53 -60 -117 -60 l-58 0 1 143 c0 115 3 137 12 117 6 -14
16 -28 21 -32z m-422 -15 c12 -11 18 -31 18 -62 1 -25 8 -64 16 -86 25 -67 25
-67 -38 -67 -32 1 -63 1 -69 1 -17 1 -4 107 21 175 12 31 24 56 27 56 4 0 15
-7 25 -17z m-55 -431 c6 -4 12 -41 14 -85 4 -87 -5 -102 -51 -85 -62 21 -86
85 -49 131 12 16 31 33 43 37 27 11 29 11 43 2z m840 -24 c47 -43 35 -110 -26
-140 -24 -12 -39 -14 -52 -8 -15 9 -17 20 -12 87 3 43 11 81 17 85 15 10 47 0
73 -24z m-387 -548 c0 -53 -23 -80 -70 -80 -29 0 -43 6 -54 22 -15 20 -22 79
-12 89 3 2 34 4 70 4 l66 0 0 -35z"/>
<path d="M1377 5027 c-7 -19 4 -34 35 -46 16 -6 28 -19 30 -33 4 -28 45 -38
54 -14 8 22 -14 74 -40 91 -26 19 -72 19 -79 2z"/>
<path d="M1700 4998 c-27 -44 -23 -73 10 -73 17 0 26 6 28 20 2 11 13 27 25
37 18 14 19 19 8 32 -21 25 -50 19 -71 -16z"/>
<path d="M1742 4901 c-6 -17 -18 -31 -26 -31 -8 0 -22 -7 -31 -16 -12 -12 -13
-19 -4 -30 32 -39 109 7 112 66 2 29 -2 36 -19 38 -16 2 -24 -4 -32 -27z"/>
<path d="M7801 5249 c-29 -10 -60 -24 -67 -30 -11 -9 -19 -8 -32 5 -22 19
-102 22 -120 4 -15 -15 -16 -100 -1 -115 8 -8 2 -30 -25 -83 -20 -40 -36 -81
-36 -92 0 -12 -11 -23 -30 -29 -29 -11 -30 -13 -30 -69 0 -53 2 -60 26 -72 18
-9 31 -29 43 -63 63 -190 225 -305 429 -305 52 0 78 -4 88 -15 21 -20 98 -20
118 1 9 8 16 30 16 47 0 25 8 39 35 60 36 29 47 67 19 67 -9 0 -27 -9 -41 -20
-19 -15 -41 -20 -82 -20 -59 0 -81 -11 -81 -42 0 -22 -30 -30 -101 -26 -47 3
-54 6 -57 26 -3 21 0 22 61 22 95 0 97 1 97 77 0 56 -3 66 -20 70 -13 3 -20
14 -20 29 0 23 2 23 113 26 l112 3 3 48 3 47 55 0 c65 0 67 -8 28 -106 -24
-61 -26 -94 -6 -94 18 0 43 38 64 96 26 73 28 210 5 266 -11 26 -14 54 -10 92
7 67 -5 86 -55 86 -26 0 -49 11 -88 41 -51 39 -83 47 -91 22 -2 -6 16 -26 41
-45 43 -32 45 -35 46 -85 0 -42 4 -55 22 -67 12 -9 33 -16 45 -16 28 0 42 -26
50 -90 l6 -49 -79 -3 -79 -3 -5 -45 -5 -45 -115 -5 -115 -5 0 -70 c0 -65 2
-70 23 -73 14 -2 22 -10 22 -23 0 -17 -8 -19 -73 -19 -80 0 -97 -9 -97 -52 0
-15 -3 -28 -7 -28 -37 1 -183 122 -183 151 0 4 21 9 48 11 l47 3 3 48 3 47 63
0 c69 0 86 10 86 52 l0 28 114 0 c63 0 121 3 130 6 13 5 16 22 16 79 l0 74
-37 3 c-37 3 -38 4 -35 41 5 55 -9 67 -84 67 l-64 0 0 65 c0 77 3 79 83 67 65
-10 91 3 62 32 -24 24 -182 21 -254 -5z m58 -113 c-1 -40 1 -78 5 -85 4 -6 34
-11 72 -11 l64 0 0 -49 c0 -52 8 -61 56 -61 19 0 24 -5 24 -25 l0 -25 -123 0
c-133 0 -147 -5 -147 -52 0 -28 -1 -28 -59 -28 -72 0 -91 -15 -91 -71 0 -40 0
-40 -37 -37 -30 2 -38 8 -46 31 -8 24 -5 32 12 48 29 27 29 101 1 129 -26 26
-25 34 8 105 31 64 45 81 77 86 11 2 27 19 35 37 10 21 31 40 64 57 82 41 87
38 85 -49z m-199 34 c0 -13 -7 -20 -20 -20 -13 0 -20 7 -20 20 0 13 7 20 20
20 13 0 20 -7 20 -20z m650 -100 c0 -13 -7 -20 -20 -20 -13 0 -20 7 -20 20 0
13 7 20 20 20 13 0 20 -7 20 -20z"/>
<path d="M7435 5130 c-8 -14 3 -30 21 -30 22 0 17 -37 -7 -43 -24 -6 -21 -30
4 -35 12 -2 17 3 17 17 0 14 6 21 20 21 13 0 20 7 20 20 0 13 -7 20 -20 20
-13 0 -20 7 -20 20 0 21 -24 28 -35 10z"/>
<path d="M2076 5103 c-9 -22 10 -41 25 -26 13 13 5 43 -10 43 -5 0 -12 -8 -15
-17z"/>
<path d="M2143 5104 c-8 -21 13 -42 28 -27 13 13 5 43 -11 43 -6 0 -13 -7 -17
-16z"/>
<path d="M7395 5090 c-4 -7 -3 -16 3 -22 14 -14 45 -2 40 15 -6 16 -34 21 -43
7z"/>
<path d="M3435 5070 c19 -21 35 -18 35 6 0 9 -10 14 -27 14 -25 0 -26 -1 -8
-20z"/>
<path d="M3570 5063 c0 -16 4 -23 8 -17 4 6 15 13 25 17 26 10 21 27 -8 27
-21 0 -25 -5 -25 -27z"/>
<path d="M3980 5064 c0 -20 3 -24 13 -16 7 6 30 12 51 14 64 5 57 28 -8 28
-54 0 -56 -1 -56 -26z"/>
<path d="M4306 5074 c-9 -8 -16 -24 -16 -35 0 -19 0 -19 20 1 23 23 42 25 72
9 27 -15 35 -3 13 21 -22 24 -67 26 -89 4z"/>
<path d="M4708 5079 c-10 -5 -18 -21 -18 -34 l0 -25 20 20 c22 22 60 26 78 8
9 -9 12 -9 12 3 0 35 -53 51 -92 28z"/>
<path d="M4965 5070 c19 -21 35 -18 35 6 0 9 -10 14 -27 14 -25 0 -26 -1 -8
-20z"/>
<path d="M5097 5071 c5 -21 38 -18 47 5 4 10 -3 14 -23 14 -24 0 -28 -4 -24
-19z"/>
<path d="M5318 5079 c-10 -5 -18 -21 -18 -34 l0 -25 20 20 c24 24 57 26 82 3
15 -14 18 -14 18 -1 0 38 -63 60 -102 37z"/>
<path d="M5670 5063 c0 -21 3 -24 12 -15 17 17 74 15 92 -4 14 -13 16 -13 16
0 0 28 -30 46 -76 46 -41 0 -44 -2 -44 -27z"/>
<path d="M2085 5027 c-35 -26 -7 -37 96 -37 82 0 101 3 106 16 3 9 0 20 -8 25
-23 14 -173 11 -194 -4z"/>
<path d="M980 5010 c0 -15 5 -20 18 -18 9 2 17 10 17 18 0 8 -8 16 -17 18 -13
2 -18 -3 -18 -18z"/>
<path d="M1045 5020 c-8 -14 3 -30 21 -30 8 0 14 9 14 20 0 21 -24 28 -35 10z"/>
<path d="M7170 4972 c0 -10 33 -61 73 -113 39 -52 84 -111 99 -131 l28 -36
-88 -58 c-154 -102 -300 -270 -387 -443 -32 -64 -80 -213 -96 -296 -19 -95
-16 -317 5 -410 107 -472 438 -797 909 -890 130 -26 336 -17 477 20 567 149
919 693 825 1274 -46 282 -218 559 -445 719 -36 25 -67 47 -69 49 -4 3 58 86
171 232 32 40 58 78 58 83 0 5 -7 11 -16 15 -19 7 13 46 -401 -490 -320 -414
-340 -437 -368 -435 -31 3 -14 -18 -563 692 -100 130 -189 236 -197 236 -8 0
-15 -8 -15 -18z m1287 -994 l28 -28 -533 0 c-353 0 -532 3 -532 10 0 6 15 19
33 30 31 20 47 20 504 18 l473 -3 27 -27z m126 -133 c-1 -27 -2 -53 -2 -57 -1
-5 -196 -8 -435 -8 -373 0 -435 -2 -446 -15 -7 -8 -23 -15 -35 -15 -12 0 -28
7 -35 15 -10 12 -42 15 -166 15 l-154 0 0 60 0 60 637 -2 638 -3 -2 -50z
m-1368 -470 l0 -100 -25 0 c-25 0 -25 1 -28 89 -3 105 0 118 30 114 22 -3 23
-7 23 -103z m97 55 c17 -27 34 -50 37 -50 3 0 6 21 6 47 l0 48 158 2 157 3 0
-25 c0 -21 -5 -25 -30 -25 -39 0 -41 -27 -2 -32 19 -2 28 -9 30 -25 3 -20 -1
-23 -27 -23 -25 0 -31 -4 -31 -20 0 -17 6 -20 28 -18 22 2 28 -1 30 -20 3 -22
1 -23 -55 -20 l-58 3 -3 81 c-3 76 -4 82 -22 77 -18 -5 -20 -14 -20 -85 l0
-79 -27 3 c-28 3 -28 3 -28 80 0 72 -1 77 -22 81 -22 4 -23 2 -23 -80 l0 -84
-27 3 c-20 2 -35 16 -60 58 l-33 55 0 -57 c0 -55 -1 -58 -25 -58 l-25 0 0 105
c0 99 1 105 20 105 14 0 31 -16 52 -50z m502 29 c31 -25 35 -70 7 -98 -18 -18
-18 -19 0 -47 25 -38 24 -44 -6 -44 -19 0 -32 10 -48 38 l-22 37 -3 -37 c-3
-33 -7 -38 -28 -38 -24 0 -24 1 -24 98 0 54 3 102 7 105 15 16 91 6 117 -14z
m82 13 c6 -4 24 -29 40 -57 l29 -50 5 55 c4 48 8 55 28 58 22 3 22 2 22 -102
0 -104 0 -106 -23 -106 -17 0 -31 14 -57 57 l-35 58 -3 -58 c-3 -53 -5 -57
-27 -57 -25 0 -25 1 -25 98 0 54 3 102 7 105 8 9 25 9 39 -1z m402 -15 c2 -12
-4 -20 -17 -24 -18 -4 -21 -14 -23 -82 -3 -74 -4 -76 -28 -76 -24 0 -25 2 -25
75 0 83 -5 89 -72 82 -40 -5 -44 -29 -5 -34 19 -2 28 -9 30 -25 3 -20 -1 -23
-28 -23 -25 0 -31 -4 -28 -17 2 -12 11 -17 24 -15 26 3 52 -24 37 -39 -6 -6
-34 -9 -64 -7 l-54 3 -3 89 c-2 49 -1 95 2 103 4 10 34 12 128 10 110 -2 123
-4 126 -20z m233 7 c37 -19 63 -74 54 -115 -4 -16 -20 -40 -37 -54 -86 -72
-215 25 -164 124 29 55 91 75 147 45z m179 -9 c0 -21 -5 -25 -30 -25 -39 0
-41 -27 -2 -32 19 -2 28 -9 30 -25 3 -20 -1 -23 -27 -23 -29 0 -31 -2 -31 -40
0 -36 -3 -40 -24 -40 -24 0 -25 2 -28 95 -2 53 -1 100 0 105 2 6 28 10 58 10
51 0 54 -1 54 -25z m-1060 -296 c0 -37 2 -39 30 -39 28 0 30 2 30 40 0 36 3
40 25 40 l25 0 0 -105 0 -105 -25 0 c-22 0 -25 4 -25 40 0 38 -2 40 -30 40
-28 0 -30 -2 -30 -40 0 -36 -2 -40 -25 -40 -25 0 -25 1 -25 86 0 74 -2 85 -16
80 -9 -3 -19 -6 -22 -6 -4 0 -7 -35 -7 -77 0 -77 0 -78 -25 -78 -24 0 -25 2
-28 76 -2 67 -5 78 -22 82 -12 3 -20 14 -20 26 0 20 5 21 95 20 l95 -1 0 -39z
m188 -61 c-3 -102 -3 -103 -28 -103 -25 0 -25 1 -28 89 -3 106 -1 116 33 116
l26 0 -3 -102z m102 45 l35 -58 3 58 c3 53 5 57 27 57 25 0 25 0 25 -105 0
-104 0 -105 -24 -105 -17 0 -32 14 -59 58 l-36 57 -1 -57 c0 -55 -1 -58 -25
-58 l-25 0 0 105 c0 103 0 105 23 105 17 0 31 -14 57 -57z m281 29 c33 -30 33
-52 0 -52 -10 0 -24 7 -31 15 -18 22 -67 19 -80 -4 -14 -26 -13 -64 2 -79 15
-15 64 -16 73 -2 4 6 -7 10 -25 10 -27 0 -31 3 -28 23 3 20 8 22 63 22 55 0
60 -2 63 -23 5 -34 -57 -92 -97 -92 -39 0 -87 24 -101 49 -5 11 -10 38 -10 61
0 90 103 133 171 72z m159 8 c11 -11 20 -25 20 -30 0 -16 -30 -24 -43 -11 -6
6 -20 11 -30 11 -16 0 -17 -3 -7 -15 7 -8 18 -15 24 -15 22 0 56 -40 56 -65 0
-34 -34 -65 -70 -65 -32 0 -70 30 -70 55 0 23 31 31 45 12 13 -18 45 -23 45
-7 0 5 -17 18 -39 29 -55 29 -66 66 -31 101 11 11 33 20 50 20 17 0 39 -9 50
-20z"/>
<path d="M7380 3840 c0 -23 5 -30 19 -30 21 0 33 22 25 45 -4 8 -15 15 -25 15
-14 0 -19 -7 -19 -30z"/>
<path d="M7460 3840 c0 -23 4 -30 20 -30 16 0 20 7 20 30 0 23 -4 30 -20 30
-16 0 -20 -7 -20 -30z"/>
<path d="M7540 3840 l0 -30 484 0 c421 0 485 2 490 15 12 34 -31 65 -49 35 -4
-6 -162 -10 -440 -10 -278 0 -436 4 -440 10 -3 6 -15 10 -26 10 -14 0 -19 -7
-19 -30z"/>
<path d="M7740 3400 c0 -33 19 -40 40 -15 16 20 5 45 -20 45 -16 0 -20 -7 -20
-30z"/>
<path d="M8442 3418 c-22 -22 -15 -76 13 -94 23 -15 27 -15 50 0 27 18 33 53
15 87 -12 22 -59 26 -78 7z"/>
<path d="M2075 4960 c-15 -25 17 -40 84 -40 73 0 97 10 88 34 -5 13 -22 16
-86 16 -45 0 -83 -5 -86 -10z"/>
<path d="M4850 4946 c6 -8 18 -12 26 -9 23 9 16 23 -12 23 -22 0 -24 -2 -14
-14z"/>
<path d="M873 4935 c-3 -9 -3 -18 0 -21 10 -10 182 -15 196 -6 8 6 11 17 8 26
-9 23 -195 24 -204 1z"/>
<path d="M8473 4931 c-3 -11 -13 -21 -24 -24 -25 -7 -24 -37 1 -44 11 -3 20
-11 20 -19 0 -26 22 -25 50 2 36 35 39 64 8 64 -12 0 -18 3 -15 7 8 7 -11 33
-25 33 -6 0 -12 -9 -15 -19z m37 -46 c0 -8 -9 -15 -20 -15 -13 0 -18 5 -14 15
4 8 12 15 20 15 8 0 14 -7 14 -15z"/>
<path d="M910 4860 c0 -18 7 -20 85 -20 78 0 85 2 85 20 0 18 -7 20 -85 20
-78 0 -85 -2 -85 -20z"/>
<path d="M6213 4841 c-24 -21 -43 -46 -43 -55 0 -15 2 -15 24 1 20 15 75 94
64 93 -2 -1 -22 -18 -45 -39z"/>
<path d="M5855 4859 c-4 -6 -5 -12 -2 -15 2 -3 7 2 10 11 7 17 1 20 -8 4z"/>
<path d="M6010 4835 c28 -33 41 -45 53 -45 14 0 7 21 -10 27 -10 3 -29 15 -43
27 l-25 21 25 -30z"/>
<path d="M4290 4775 c0 -21 3 -26 9 -16 6 9 24 12 60 10 42 -3 51 -1 51 13 0
13 -12 17 -60 20 l-60 3 0 -30z"/>
<path d="M3980 4774 c0 -20 3 -24 13 -16 7 6 30 12 51 14 64 5 57 28 -8 28
-54 0 -56 -1 -56 -26z"/>
<path d="M5670 4775 c0 -23 2 -25 21 -14 25 13 85 4 92 -14 4 -7 6 -6 6 4 2
27 -33 49 -77 49 -38 0 -42 -2 -42 -25z"/>
<path d="M1339 4599 c-30 -30 -12 -45 36 -29 20 7 47 10 61 7 26 -5 50 15 39
33 -3 5 -31 10 -61 10 -42 0 -59 -5 -75 -21z"/>
<path d="M1704 4609 c-10 -17 12 -32 53 -33 21 -1 50 -6 66 -10 23 -7 27 -5
27 13 0 11 -9 25 -19 31 -26 13 -118 13 -127 -1z"/>
<path d="M4859 4564 c-52 -56 -116 -69 -181 -36 -34 18 -35 18 -25 1 14 -23
71 -49 106 -49 36 0 90 36 114 78 23 39 19 41 -14 6z"/>
<path d="M1559 4561 c-20 -16 -26 -35 -36 -108 -15 -114 -6 -133 67 -133 74 0
83 19 66 134 -11 71 -18 93 -36 108 -28 23 -32 22 -61 -1z m45 -97 c11 -83 9
-96 -16 -92 -13 2 -22 6 -21 11 0 4 4 34 8 67 4 33 10 60 15 60 4 0 10 -21 14
-46z"/>
<path d="M5479 4564 c-21 -25 -86 -54 -121 -54 -19 0 -52 9 -73 20 l-40 20 32
-30 c39 -35 70 -45 117 -36 33 6 78 43 97 78 12 22 6 23 -12 2z"/>
<path d="M1404 4535 c-7 -18 3 -35 21 -35 18 0 26 25 12 39 -15 15 -27 14 -33
-4z"/>
<path d="M1740 4535 c-10 -11 -10 -19 -2 -27 15 -15 44 -2 40 19 -4 23 -22 27
-38 8z"/>
<path d="M3273 4499 c14 -8 22 -8 30 0 8 8 3 11 -18 11 -26 -1 -28 -2 -12 -11z"/>
<path d="M3508 4498 c17 -8 26 -8 34 0 9 9 4 12 -22 11 -33 0 -34 -1 -12 -11z"/>
<path d="M3915 4500 c3 -5 12 -10 20 -10 8 0 17 5 20 10 4 6 -5 10 -20 10 -15
0 -24 -4 -20 -10z"/>
<path d="M4211 4507 c2 -1 11 -8 20 -15 13 -10 19 -9 29 3 11 13 8 15 -20 15
-19 0 -31 -1 -29 -3z"/>
<path d="M4458 4498 c17 -8 26 -8 34 0 9 9 4 12 -22 11 -33 0 -34 -1 -12 -11z"/>
<path d="M5038 4498 c17 -8 26 -8 34 0 9 9 4 12 -22 11 -33 0 -34 -1 -12 -11z"/>
<path d="M5608 4498 c8 -8 17 -8 34 0 22 10 21 11 -11 11 -27 1 -32 -2 -23
-11z"/>
<path d="M5825 4500 c3 -5 15 -10 25 -10 10 0 22 5 25 10 4 6 -7 10 -25 10
-18 0 -29 -4 -25 -10z"/>
<path d="M6108 4498 c17 -8 26 -8 34 0 9 9 4 12 -22 11 -33 0 -34 -1 -12 -11z"/>
<path d="M1453 4304 c-8 -22 24 -81 58 -106 38 -28 97 -33 139 -11 40 21 82
78 78 108 -5 32 -30 24 -51 -16 -42 -81 -138 -76 -179 8 -16 33 -36 40 -45 17z"/>
<path d="M1430 3875 c-18 -21 -5 -47 22 -43 26 3 37 36 16 49 -18 12 -24 11
-38 -6z"/>
<path d="M1424 3795 c-4 -9 0 -23 8 -31 20 -20 50 -7 46 20 -4 26 -45 35 -54
11z"/>
<path d="M4720 3125 c-33 -30 -63 -55 -67 -55 -5 0 -40 7 -80 17 -88 20 -94
17 -118 -72 -9 -35 -22 -68 -29 -73 -6 -5 -36 -17 -66 -27 -30 -9 -65 -23 -76
-31 l-22 -13 18 -78 c21 -86 23 -78 -47 -155 -24 -26 -43 -52 -43 -59 0 -6 22
-37 50 -69 l50 -57 -16 -81 c-9 -44 -14 -87 -11 -95 3 -8 38 -26 79 -40 65
-22 73 -27 70 -48 -1 -13 -32 -133 -68 -267 -36 -133 -64 -250 -62 -260 7 -35
56 -26 129 22 38 25 72 46 77 46 4 0 24 -34 45 -75 39 -76 69 -108 93 -98 15
6 33 61 88 273 l38 145 37 1 36 1 54 -204 c70 -266 81 -274 162 -125 23 43 43
79 45 81 2 2 37 -18 79 -43 79 -50 127 -58 133 -24 2 9 -7 54 -19 98 -17 64
-27 84 -45 92 -31 14 -40 44 -20 64 28 27 12 64 -28 64 -18 0 -18 1 -3 18 22
24 21 39 -5 133 -11 44 -19 80 -17 82 2 1 38 14 79 28 l75 25 -2 53 c-2 29 -7
59 -12 65 -29 36 -23 56 33 122 31 36 56 69 56 74 0 5 -25 36 -56 69 l-56 61
17 76 c9 41 14 81 12 89 -3 7 -36 23 -74 35 -37 13 -73 27 -79 31 -6 5 -19 37
-29 71 -27 94 -29 95 -124 73 l-80 -18 -62 57 c-34 31 -66 56 -71 56 -4 0 -35
-25 -68 -55z m131 -80 c26 -25 54 -45 61 -45 13 0 90 17 120 26 13 4 21 -10
38 -61 24 -72 36 -83 117 -110 46 -14 52 -20 48 -38 -28 -127 -29 -122 32
-191 l43 -48 -39 -43 c-59 -64 -61 -72 -46 -145 7 -35 12 -67 10 -70 -2 -4
-31 -15 -65 -25 -33 -10 -65 -24 -71 -31 -6 -8 -19 -39 -29 -71 -20 -64 -13
-61 -120 -48 l-55 7 -53 -47 -52 -47 -52 47 c-53 46 -53 47 -108 40 -108 -13
-99 -17 -125 54 -27 72 -29 75 -105 98 -30 9 -57 18 -58 19 -2 1 2 29 9 61 17
82 16 88 -37 149 l-47 55 45 47 c25 26 48 54 51 63 3 9 -1 42 -9 75 -7 32 -14
62 -14 66 0 3 29 16 64 28 36 12 69 26 74 33 6 7 18 37 27 67 10 30 21 58 24
62 3 4 33 0 66 -7 75 -18 93 -13 141 36 21 21 45 39 52 39 8 0 37 -20 63 -45z
m-176 -981 c19 -14 19 -17 -25 -189 -25 -96 -48 -175 -53 -175 -4 0 -17 20
-29 45 l-22 44 34 138 c38 158 48 173 95 137z m291 -54 c6 -30 22 -92 34 -138
22 -82 22 -84 4 -124 l-19 -41 -13 44 c-7 24 -28 101 -47 171 -34 132 -33 152
10 146 15 -2 22 -16 31 -58z"/>
<path d="M4672 2976 c-70 -23 -93 -54 -54 -75 13 -7 32 -5 63 6 65 22 200 14
258 -16 148 -77 225 -240 187 -393 -43 -167 -199 -280 -367 -265 -165 15 -300
151 -315 319 -5 52 -2 77 20 142 29 87 28 109 -6 104 -31 -4 -65 -74 -78 -164
-13 -85 4 -177 47 -256 35 -65 120 -143 190 -176 52 -24 69 -27 173 -27 104 0
121 3 173 27 81 38 161 117 199 197 26 54 33 82 36 152 9 187 -75 328 -244
406 -48 22 -76 28 -149 30 -57 2 -106 -2 -133 -11z"/>
<path d="M4492 2868 c-18 -18 -15 -36 9 -49 29 -15 59 12 43 39 -14 22 -36 26
-52 10z"/>
<path d="M4757 2785 c-8 -8 -25 -31 -38 -52 -29 -47 -32 -50 -86 -58 -80 -12
-94 -53 -38 -118 32 -38 35 -46 35 -107 0 -95 23 -109 113 -70 l45 20 47 -20
c93 -40 121 -22 112 69 -5 57 -4 60 34 106 21 26 39 55 39 65 0 26 -31 48 -79
56 -45 7 -51 11 -101 82 -32 44 -58 53 -83 27z m61 -110 c23 -36 43 -48 95
-60 l28 -6 -30 -35 c-26 -29 -31 -43 -31 -84 0 -28 -4 -50 -9 -50 -5 0 -25 7
-45 15 -32 14 -40 14 -72 0 -55 -23 -60 -20 -56 30 3 38 -1 52 -24 83 -16 20
-27 39 -25 42 2 3 22 10 45 15 31 8 47 19 65 48 13 20 27 37 30 37 3 0 16 -16
29 -35z"/>
<path d="M4912 2033 c3 -10 20 -78 39 -150 22 -87 37 -129 43 -123 19 19 -48
290 -72 290 -9 0 -13 -7 -10 -17z"/>
</g>
</svg>
